<svg width="1728" height="279" viewBox="0 0 1728 279" fill="none" xmlns="http://www.w3.org/2000/svg">
<g filter="url(#filter0_d_491_209)">
<path d="M0 38H1728V241H0V38Z" fill="#2AB9D9"/>
</g>
<g filter="url(#filter1_d_491_209)">
<path d="M15 37.5C15 40.8487 15.763 44.1646 17.2456 47.2584C18.7281 50.3522 20.901 53.1633 23.6403 55.5312C26.3797 57.8991 29.6317 59.7774 33.2108 61.0589C36.7899 62.3404 40.626 63 44.5 63C48.374 63 52.2101 62.3404 55.7892 61.0589C59.3683 59.7774 62.6203 57.8991 65.3596 55.5312C68.099 53.1633 70.2719 50.3522 71.7544 47.2584C73.237 44.1646 74 40.8487 74 37.5H44.5L15 37.5Z" fill="#00529E"/>
<path d="M15 37.5C15 40.8487 15.763 44.1646 17.2456 47.2584C18.7281 50.3522 20.901 53.1633 23.6403 55.5312C26.3797 57.8991 29.6317 59.7774 33.2108 61.0589C36.7899 62.3404 40.626 63 44.5 63C48.374 63 52.2101 62.3404 55.7892 61.0589C59.3683 59.7774 62.6203 57.8991 65.3596 55.5312C68.099 53.1633 70.2719 50.3522 71.7544 47.2584C73.237 44.1646 74 40.8487 74 37.5H44.5L15 37.5Z" fill="#00529E"/>
</g>
<g filter="url(#filter2_d_491_209)">
<ellipse cx="221.5" cy="66.5" rx="20.5" ry="17.5" fill="#00529E"/>
<ellipse cx="221.5" cy="66.5" rx="20.5" ry="17.5" fill="#00529E"/>
</g>
<g filter="url(#filter3_d_491_209)">
<ellipse cx="30.5" cy="151.5" rx="14.5" ry="12.5" fill="#00529E"/>
<ellipse cx="30.5" cy="151.5" rx="14.5" ry="12.5" fill="#229ED9"/>
</g>
<g filter="url(#filter4_d_491_209)">
<ellipse cx="125.5" cy="62.5" rx="20.5" ry="17.5" fill="#00529E"/>
<ellipse cx="125.5" cy="62.5" rx="20.5" ry="17.5" fill="#229ED9"/>
</g>
<g filter="url(#filter5_d_491_209)">
<ellipse cx="188.5" cy="115" rx="31.5" ry="25" fill="#2AABEE"/>
<ellipse cx="188.5" cy="115" rx="31.5" ry="25" fill="#229ED9"/>
</g>
<g filter="url(#filter6_d_491_209)">
<ellipse cx="93" cy="126.5" rx="20" ry="17.5" fill="#00529E"/>
<ellipse cx="93" cy="126.5" rx="20" ry="17.5" fill="#00529E"/>
</g>
<g filter="url(#filter7_d_491_209)">
<ellipse cx="49" cy="94" rx="8" ry="7" fill="#00529E"/>
<ellipse cx="49" cy="94" rx="8" ry="7" fill="#00529E"/>
</g>
<g filter="url(#filter8_d_491_209)">
<ellipse cx="146.5" cy="174.5" rx="20.5" ry="17.5" fill="#00529E"/>
<ellipse cx="146.5" cy="174.5" rx="20.5" ry="17.5" fill="#00529E"/>
</g>
<g filter="url(#filter9_d_491_209)">
<path d="M134 241.5C134 236.575 132.797 231.699 130.46 227.149C128.124 222.6 124.698 218.466 120.38 214.983C116.063 211.501 110.936 208.739 105.295 206.855C99.6531 204.97 93.6065 204 87.5 204C81.3935 204 75.3469 204.97 69.7052 206.855C64.0636 208.739 58.9375 211.501 54.6195 214.983C50.3016 218.466 46.8764 222.6 44.5396 227.149C42.2028 231.699 41 236.575 41 241.5L87.5 241.5H134Z" fill="#00529E"/>
<path d="M134 241.5C134 236.575 132.797 231.699 130.46 227.149C128.124 222.6 124.698 218.466 120.38 214.983C116.063 211.501 110.936 208.739 105.295 206.855C99.6531 204.97 93.6065 204 87.5 204C81.3935 204 75.3469 204.97 69.7052 206.855C64.0636 208.739 58.9375 211.501 54.6195 214.983C50.3016 218.466 46.8764 222.6 44.5396 227.149C42.2028 231.699 41 236.575 41 241.5L87.5 241.5H134Z" fill="#229ED9"/>
</g>
<g filter="url(#filter10_d_491_209)">
<ellipse cx="244.5" cy="192.5" rx="28.5" ry="24.5" fill="#00529E"/>
<ellipse cx="244.5" cy="192.5" rx="28.5" ry="24.5" fill="#00529E"/>
</g>
<g filter="url(#filter11_d_491_209)">
<ellipse cx="1675.5" cy="124.5" rx="20.5" ry="17.5" fill="#00529E"/>
<ellipse cx="1675.5" cy="124.5" rx="20.5" ry="17.5" fill="#00529E"/>
</g>
<g filter="url(#filter12_d_491_209)">
<ellipse cx="1612" cy="85" rx="29" ry="25" fill="#00529E"/>
<ellipse cx="1612" cy="85" rx="29" ry="25" fill="#229ED9"/>
</g>
<g filter="url(#filter13_d_491_209)">
<ellipse cx="1525" cy="117.5" rx="20" ry="17.5" fill="#00529E"/>
<ellipse cx="1525" cy="117.5" rx="20" ry="17.5" fill="#00529E"/>
</g>
<g filter="url(#filter14_d_491_209)">
<ellipse cx="1692.5" cy="60.5" rx="20.5" ry="17.5" fill="#00529E"/>
<ellipse cx="1692.5" cy="60.5" rx="20.5" ry="17.5" fill="#00529E"/>
</g>
<g filter="url(#filter15_d_491_209)">
<ellipse cx="1552" cy="65" rx="13" ry="11" fill="#00529E"/>
<ellipse cx="1552" cy="65" rx="13" ry="11" fill="#229ED9"/>
</g>
<g filter="url(#filter16_d_491_209)">
<path d="M1516 37.5C1516 47.4456 1511.05 56.9839 1502.23 64.0165C1493.42 71.0491 1481.47 75 1469 75C1456.53 75 1444.58 71.0491 1435.77 64.0165C1426.95 56.9839 1422 47.4456 1422 37.5L1469 37.5H1516Z" fill="#00529E"/>
<path d="M1516 37.5C1516 47.4456 1511.05 56.9839 1502.23 64.0165C1493.42 71.0491 1481.47 75 1469 75C1456.53 75 1444.58 71.0491 1435.77 64.0165C1426.95 56.9839 1422 47.4456 1422 37.5L1469 37.5H1516Z" fill="#229ED9"/>
</g>
<g filter="url(#filter17_d_491_209)">
<path d="M1641 241.5C1641 238.283 1640.26 235.097 1638.83 232.124C1637.4 229.152 1635.3 226.451 1632.65 224.176C1630.01 221.901 1626.86 220.096 1623.41 218.865C1619.95 217.634 1616.24 217 1612.5 217C1608.76 217 1605.05 217.634 1601.59 218.865C1598.14 220.096 1594.99 221.901 1592.35 224.176C1589.7 226.451 1587.6 229.152 1586.17 232.124C1584.74 235.097 1584 238.283 1584 241.5L1612.5 241.5H1641Z" fill="#00529E"/>
<path d="M1641 241.5C1641 238.283 1640.26 235.097 1638.83 232.124C1637.4 229.152 1635.3 226.451 1632.65 224.176C1630.01 221.901 1626.86 220.096 1623.41 218.865C1619.95 217.634 1616.24 217 1612.5 217C1608.76 217 1605.05 217.634 1601.59 218.865C1598.14 220.096 1594.99 221.901 1592.35 224.176C1589.7 226.451 1587.6 229.152 1586.17 232.124C1584.74 235.097 1584 238.283 1584 241.5L1612.5 241.5H1641Z" fill="#00529E"/>
</g>
<g filter="url(#filter18_d_491_209)">
<ellipse cx="1596.5" cy="170.5" rx="28.5" ry="24.5" fill="#00529E"/>
<ellipse cx="1596.5" cy="170.5" rx="28.5" ry="24.5" fill="#00529E"/>
</g>
<g filter="url(#filter19_d_491_209)">
<ellipse cx="1504" cy="195.5" rx="28" ry="24.5" fill="#00529E"/>
<ellipse cx="1504" cy="195.5" rx="28" ry="24.5" fill="#229ED9"/>
</g>
<g filter="url(#filter20_d_491_209)">
<ellipse cx="1695" cy="195.5" rx="11" ry="9.5" fill="#00529E"/>
<ellipse cx="1695" cy="195.5" rx="11" ry="9.5" fill="#229ED9"/>
</g>
<defs>
<filter id="filter0_d_491_209" x="-4" y="38" width="1736" height="211" filterUnits="userSpaceOnUse" color-interpolation-filters="sRGB">
<feFlood flood-opacity="0" result="BackgroundImageFix"/>
<feColorMatrix in="SourceAlpha" type="matrix" values="0 0 0 0 0 0 0 0 0 0 0 0 0 0 0 0 0 0 127 0" result="hardAlpha"/>
<feOffset dy="4"/>
<feGaussianBlur stdDeviation="2"/>
<feComposite in2="hardAlpha" operator="out"/>
<feColorMatrix type="matrix" values="0 0 0 0 0 0 0 0 0 0 0 0 0 0 0 0 0 0 0.25 0"/>
<feBlend mode="normal" in2="BackgroundImageFix" result="effect1_dropShadow_491_209"/>
<feBlend mode="normal" in="SourceGraphic" in2="effect1_dropShadow_491_209" result="shape"/>
</filter>
<filter id="filter1_d_491_209" x="11" y="37.5" width="67" height="33.5" filterUnits="userSpaceOnUse" color-interpolation-filters="sRGB">
<feFlood flood-opacity="0" result="BackgroundImageFix"/>
<feColorMatrix in="SourceAlpha" type="matrix" values="0 0 0 0 0 0 0 0 0 0 0 0 0 0 0 0 0 0 127 0" result="hardAlpha"/>
<feOffset dy="4"/>
<feGaussianBlur stdDeviation="2"/>
<feComposite in2="hardAlpha" operator="out"/>
<feColorMatrix type="matrix" values="0 0 0 0 0 0 0 0 0 0 0 0 0 0 0 0 0 0 0.25 0"/>
<feBlend mode="normal" in2="BackgroundImageFix" result="effect1_dropShadow_491_209"/>
<feBlend mode="normal" in="SourceGraphic" in2="effect1_dropShadow_491_209" result="shape"/>
</filter>
<filter id="filter2_d_491_209" x="197" y="49" width="49" height="43" filterUnits="userSpaceOnUse" color-interpolation-filters="sRGB">
<feFlood flood-opacity="0" result="BackgroundImageFix"/>
<feColorMatrix in="SourceAlpha" type="matrix" values="0 0 0 0 0 0 0 0 0 0 0 0 0 0 0 0 0 0 127 0" result="hardAlpha"/>
<feOffset dy="4"/>
<feGaussianBlur stdDeviation="2"/>
<feComposite in2="hardAlpha" operator="out"/>
<feColorMatrix type="matrix" values="0 0 0 0 0 0 0 0 0 0 0 0 0 0 0 0 0 0 0.25 0"/>
<feBlend mode="normal" in2="BackgroundImageFix" result="effect1_dropShadow_491_209"/>
<feBlend mode="normal" in="SourceGraphic" in2="effect1_dropShadow_491_209" result="shape"/>
</filter>
<filter id="filter3_d_491_209" x="12" y="139" width="37" height="33" filterUnits="userSpaceOnUse" color-interpolation-filters="sRGB">
<feFlood flood-opacity="0" result="BackgroundImageFix"/>
<feColorMatrix in="SourceAlpha" type="matrix" values="0 0 0 0 0 0 0 0 0 0 0 0 0 0 0 0 0 0 127 0" result="hardAlpha"/>
<feOffset dy="4"/>
<feGaussianBlur stdDeviation="2"/>
<feComposite in2="hardAlpha" operator="out"/>
<feColorMatrix type="matrix" values="0 0 0 0 0 0 0 0 0 0 0 0 0 0 0 0 0 0 0.25 0"/>
<feBlend mode="normal" in2="BackgroundImageFix" result="effect1_dropShadow_491_209"/>
<feBlend mode="normal" in="SourceGraphic" in2="effect1_dropShadow_491_209" result="shape"/>
</filter>
<filter id="filter4_d_491_209" x="101" y="45" width="49" height="43" filterUnits="userSpaceOnUse" color-interpolation-filters="sRGB">
<feFlood flood-opacity="0" result="BackgroundImageFix"/>
<feColorMatrix in="SourceAlpha" type="matrix" values="0 0 0 0 0 0 0 0 0 0 0 0 0 0 0 0 0 0 127 0" result="hardAlpha"/>
<feOffset dy="4"/>
<feGaussianBlur stdDeviation="2"/>
<feComposite in2="hardAlpha" operator="out"/>
<feColorMatrix type="matrix" values="0 0 0 0 0 0 0 0 0 0 0 0 0 0 0 0 0 0 0.25 0"/>
<feBlend mode="normal" in2="BackgroundImageFix" result="effect1_dropShadow_491_209"/>
<feBlend mode="normal" in="SourceGraphic" in2="effect1_dropShadow_491_209" result="shape"/>
</filter>
<filter id="filter5_d_491_209" x="153" y="90" width="71" height="58" filterUnits="userSpaceOnUse" color-interpolation-filters="sRGB">
<feFlood flood-opacity="0" result="BackgroundImageFix"/>
<feColorMatrix in="SourceAlpha" type="matrix" values="0 0 0 0 0 0 0 0 0 0 0 0 0 0 0 0 0 0 127 0" result="hardAlpha"/>
<feOffset dy="4"/>
<feGaussianBlur stdDeviation="2"/>
<feComposite in2="hardAlpha" operator="out"/>
<feColorMatrix type="matrix" values="0 0 0 0 0 0 0 0 0 0 0 0 0 0 0 0 0 0 0.25 0"/>
<feBlend mode="normal" in2="BackgroundImageFix" result="effect1_dropShadow_491_209"/>
<feBlend mode="normal" in="SourceGraphic" in2="effect1_dropShadow_491_209" result="shape"/>
</filter>
<filter id="filter6_d_491_209" x="69" y="109" width="48" height="43" filterUnits="userSpaceOnUse" color-interpolation-filters="sRGB">
<feFlood flood-opacity="0" result="BackgroundImageFix"/>
<feColorMatrix in="SourceAlpha" type="matrix" values="0 0 0 0 0 0 0 0 0 0 0 0 0 0 0 0 0 0 127 0" result="hardAlpha"/>
<feOffset dy="4"/>
<feGaussianBlur stdDeviation="2"/>
<feComposite in2="hardAlpha" operator="out"/>
<feColorMatrix type="matrix" values="0 0 0 0 0 0 0 0 0 0 0 0 0 0 0 0 0 0 0.25 0"/>
<feBlend mode="normal" in2="BackgroundImageFix" result="effect1_dropShadow_491_209"/>
<feBlend mode="normal" in="SourceGraphic" in2="effect1_dropShadow_491_209" result="shape"/>
</filter>
<filter id="filter7_d_491_209" x="37" y="87" width="24" height="22" filterUnits="userSpaceOnUse" color-interpolation-filters="sRGB">
<feFlood flood-opacity="0" result="BackgroundImageFix"/>
<feColorMatrix in="SourceAlpha" type="matrix" values="0 0 0 0 0 0 0 0 0 0 0 0 0 0 0 0 0 0 127 0" result="hardAlpha"/>
<feOffset dy="4"/>
<feGaussianBlur stdDeviation="2"/>
<feComposite in2="hardAlpha" operator="out"/>
<feColorMatrix type="matrix" values="0 0 0 0 0 0 0 0 0 0 0 0 0 0 0 0 0 0 0.25 0"/>
<feBlend mode="normal" in2="BackgroundImageFix" result="effect1_dropShadow_491_209"/>
<feBlend mode="normal" in="SourceGraphic" in2="effect1_dropShadow_491_209" result="shape"/>
</filter>
<filter id="filter8_d_491_209" x="122" y="157" width="49" height="43" filterUnits="userSpaceOnUse" color-interpolation-filters="sRGB">
<feFlood flood-opacity="0" result="BackgroundImageFix"/>
<feColorMatrix in="SourceAlpha" type="matrix" values="0 0 0 0 0 0 0 0 0 0 0 0 0 0 0 0 0 0 127 0" result="hardAlpha"/>
<feOffset dy="4"/>
<feGaussianBlur stdDeviation="2"/>
<feComposite in2="hardAlpha" operator="out"/>
<feColorMatrix type="matrix" values="0 0 0 0 0 0 0 0 0 0 0 0 0 0 0 0 0 0 0.25 0"/>
<feBlend mode="normal" in2="BackgroundImageFix" result="effect1_dropShadow_491_209"/>
<feBlend mode="normal" in="SourceGraphic" in2="effect1_dropShadow_491_209" result="shape"/>
</filter>
<filter id="filter9_d_491_209" x="37" y="204" width="101" height="45.5" filterUnits="userSpaceOnUse" color-interpolation-filters="sRGB">
<feFlood flood-opacity="0" result="BackgroundImageFix"/>
<feColorMatrix in="SourceAlpha" type="matrix" values="0 0 0 0 0 0 0 0 0 0 0 0 0 0 0 0 0 0 127 0" result="hardAlpha"/>
<feOffset dy="4"/>
<feGaussianBlur stdDeviation="2"/>
<feComposite in2="hardAlpha" operator="out"/>
<feColorMatrix type="matrix" values="0 0 0 0 0 0 0 0 0 0 0 0 0 0 0 0 0 0 0.25 0"/>
<feBlend mode="normal" in2="BackgroundImageFix" result="effect1_dropShadow_491_209"/>
<feBlend mode="normal" in="SourceGraphic" in2="effect1_dropShadow_491_209" result="shape"/>
</filter>
<filter id="filter10_d_491_209" x="212" y="168" width="65" height="57" filterUnits="userSpaceOnUse" color-interpolation-filters="sRGB">
<feFlood flood-opacity="0" result="BackgroundImageFix"/>
<feColorMatrix in="SourceAlpha" type="matrix" values="0 0 0 0 0 0 0 0 0 0 0 0 0 0 0 0 0 0 127 0" result="hardAlpha"/>
<feOffset dy="4"/>
<feGaussianBlur stdDeviation="2"/>
<feComposite in2="hardAlpha" operator="out"/>
<feColorMatrix type="matrix" values="0 0 0 0 0 0 0 0 0 0 0 0 0 0 0 0 0 0 0.25 0"/>
<feBlend mode="normal" in2="BackgroundImageFix" result="effect1_dropShadow_491_209"/>
<feBlend mode="normal" in="SourceGraphic" in2="effect1_dropShadow_491_209" result="shape"/>
</filter>
<filter id="filter11_d_491_209" x="1651" y="107" width="49" height="43" filterUnits="userSpaceOnUse" color-interpolation-filters="sRGB">
<feFlood flood-opacity="0" result="BackgroundImageFix"/>
<feColorMatrix in="SourceAlpha" type="matrix" values="0 0 0 0 0 0 0 0 0 0 0 0 0 0 0 0 0 0 127 0" result="hardAlpha"/>
<feOffset dy="4"/>
<feGaussianBlur stdDeviation="2"/>
<feComposite in2="hardAlpha" operator="out"/>
<feColorMatrix type="matrix" values="0 0 0 0 0 0 0 0 0 0 0 0 0 0 0 0 0 0 0.25 0"/>
<feBlend mode="normal" in2="BackgroundImageFix" result="effect1_dropShadow_491_209"/>
<feBlend mode="normal" in="SourceGraphic" in2="effect1_dropShadow_491_209" result="shape"/>
</filter>
<filter id="filter12_d_491_209" x="1579" y="60" width="66" height="58" filterUnits="userSpaceOnUse" color-interpolation-filters="sRGB">
<feFlood flood-opacity="0" result="BackgroundImageFix"/>
<feColorMatrix in="SourceAlpha" type="matrix" values="0 0 0 0 0 0 0 0 0 0 0 0 0 0 0 0 0 0 127 0" result="hardAlpha"/>
<feOffset dy="4"/>
<feGaussianBlur stdDeviation="2"/>
<feComposite in2="hardAlpha" operator="out"/>
<feColorMatrix type="matrix" values="0 0 0 0 0 0 0 0 0 0 0 0 0 0 0 0 0 0 0.25 0"/>
<feBlend mode="normal" in2="BackgroundImageFix" result="effect1_dropShadow_491_209"/>
<feBlend mode="normal" in="SourceGraphic" in2="effect1_dropShadow_491_209" result="shape"/>
</filter>
<filter id="filter13_d_491_209" x="1501" y="100" width="48" height="43" filterUnits="userSpaceOnUse" color-interpolation-filters="sRGB">
<feFlood flood-opacity="0" result="BackgroundImageFix"/>
<feColorMatrix in="SourceAlpha" type="matrix" values="0 0 0 0 0 0 0 0 0 0 0 0 0 0 0 0 0 0 127 0" result="hardAlpha"/>
<feOffset dy="4"/>
<feGaussianBlur stdDeviation="2"/>
<feComposite in2="hardAlpha" operator="out"/>
<feColorMatrix type="matrix" values="0 0 0 0 0 0 0 0 0 0 0 0 0 0 0 0 0 0 0.25 0"/>
<feBlend mode="normal" in2="BackgroundImageFix" result="effect1_dropShadow_491_209"/>
<feBlend mode="normal" in="SourceGraphic" in2="effect1_dropShadow_491_209" result="shape"/>
</filter>
<filter id="filter14_d_491_209" x="1668" y="43" width="49" height="43" filterUnits="userSpaceOnUse" color-interpolation-filters="sRGB">
<feFlood flood-opacity="0" result="BackgroundImageFix"/>
<feColorMatrix in="SourceAlpha" type="matrix" values="0 0 0 0 0 0 0 0 0 0 0 0 0 0 0 0 0 0 127 0" result="hardAlpha"/>
<feOffset dy="4"/>
<feGaussianBlur stdDeviation="2"/>
<feComposite in2="hardAlpha" operator="out"/>
<feColorMatrix type="matrix" values="0 0 0 0 0 0 0 0 0 0 0 0 0 0 0 0 0 0 0.25 0"/>
<feBlend mode="normal" in2="BackgroundImageFix" result="effect1_dropShadow_491_209"/>
<feBlend mode="normal" in="SourceGraphic" in2="effect1_dropShadow_491_209" result="shape"/>
</filter>
<filter id="filter15_d_491_209" x="1535" y="54" width="34" height="30" filterUnits="userSpaceOnUse" color-interpolation-filters="sRGB">
<feFlood flood-opacity="0" result="BackgroundImageFix"/>
<feColorMatrix in="SourceAlpha" type="matrix" values="0 0 0 0 0 0 0 0 0 0 0 0 0 0 0 0 0 0 127 0" result="hardAlpha"/>
<feOffset dy="4"/>
<feGaussianBlur stdDeviation="2"/>
<feComposite in2="hardAlpha" operator="out"/>
<feColorMatrix type="matrix" values="0 0 0 0 0 0 0 0 0 0 0 0 0 0 0 0 0 0 0.25 0"/>
<feBlend mode="normal" in2="BackgroundImageFix" result="effect1_dropShadow_491_209"/>
<feBlend mode="normal" in="SourceGraphic" in2="effect1_dropShadow_491_209" result="shape"/>
</filter>
<filter id="filter16_d_491_209" x="1418" y="37.5" width="102" height="45.5" filterUnits="userSpaceOnUse" color-interpolation-filters="sRGB">
<feFlood flood-opacity="0" result="BackgroundImageFix"/>
<feColorMatrix in="SourceAlpha" type="matrix" values="0 0 0 0 0 0 0 0 0 0 0 0 0 0 0 0 0 0 127 0" result="hardAlpha"/>
<feOffset dy="4"/>
<feGaussianBlur stdDeviation="2"/>
<feComposite in2="hardAlpha" operator="out"/>
<feColorMatrix type="matrix" values="0 0 0 0 0 0 0 0 0 0 0 0 0 0 0 0 0 0 0.25 0"/>
<feBlend mode="normal" in2="BackgroundImageFix" result="effect1_dropShadow_491_209"/>
<feBlend mode="normal" in="SourceGraphic" in2="effect1_dropShadow_491_209" result="shape"/>
</filter>
<filter id="filter17_d_491_209" x="1580" y="217" width="65" height="32.5" filterUnits="userSpaceOnUse" color-interpolation-filters="sRGB">
<feFlood flood-opacity="0" result="BackgroundImageFix"/>
<feColorMatrix in="SourceAlpha" type="matrix" values="0 0 0 0 0 0 0 0 0 0 0 0 0 0 0 0 0 0 127 0" result="hardAlpha"/>
<feOffset dy="4"/>
<feGaussianBlur stdDeviation="2"/>
<feComposite in2="hardAlpha" operator="out"/>
<feColorMatrix type="matrix" values="0 0 0 0 0 0 0 0 0 0 0 0 0 0 0 0 0 0 0.25 0"/>
<feBlend mode="normal" in2="BackgroundImageFix" result="effect1_dropShadow_491_209"/>
<feBlend mode="normal" in="SourceGraphic" in2="effect1_dropShadow_491_209" result="shape"/>
</filter>
<filter id="filter18_d_491_209" x="1564" y="146" width="65" height="57" filterUnits="userSpaceOnUse" color-interpolation-filters="sRGB">
<feFlood flood-opacity="0" result="BackgroundImageFix"/>
<feColorMatrix in="SourceAlpha" type="matrix" values="0 0 0 0 0 0 0 0 0 0 0 0 0 0 0 0 0 0 127 0" result="hardAlpha"/>
<feOffset dy="4"/>
<feGaussianBlur stdDeviation="2"/>
<feComposite in2="hardAlpha" operator="out"/>
<feColorMatrix type="matrix" values="0 0 0 0 0 0 0 0 0 0 0 0 0 0 0 0 0 0 0.25 0"/>
<feBlend mode="normal" in2="BackgroundImageFix" result="effect1_dropShadow_491_209"/>
<feBlend mode="normal" in="SourceGraphic" in2="effect1_dropShadow_491_209" result="shape"/>
</filter>
<filter id="filter19_d_491_209" x="1472" y="171" width="64" height="57" filterUnits="userSpaceOnUse" color-interpolation-filters="sRGB">
<feFlood flood-opacity="0" result="BackgroundImageFix"/>
<feColorMatrix in="SourceAlpha" type="matrix" values="0 0 0 0 0 0 0 0 0 0 0 0 0 0 0 0 0 0 127 0" result="hardAlpha"/>
<feOffset dy="4"/>
<feGaussianBlur stdDeviation="2"/>
<feComposite in2="hardAlpha" operator="out"/>
<feColorMatrix type="matrix" values="0 0 0 0 0 0 0 0 0 0 0 0 0 0 0 0 0 0 0.25 0"/>
<feBlend mode="normal" in2="BackgroundImageFix" result="effect1_dropShadow_491_209"/>
<feBlend mode="normal" in="SourceGraphic" in2="effect1_dropShadow_491_209" result="shape"/>
</filter>
<filter id="filter20_d_491_209" x="1680" y="186" width="30" height="27" filterUnits="userSpaceOnUse" color-interpolation-filters="sRGB">
<feFlood flood-opacity="0" result="BackgroundImageFix"/>
<feColorMatrix in="SourceAlpha" type="matrix" values="0 0 0 0 0 0 0 0 0 0 0 0 0 0 0 0 0 0 127 0" result="hardAlpha"/>
<feOffset dy="4"/>
<feGaussianBlur stdDeviation="2"/>
<feComposite in2="hardAlpha" operator="out"/>
<feColorMatrix type="matrix" values="0 0 0 0 0 0 0 0 0 0 0 0 0 0 0 0 0 0 0.25 0"/>
<feBlend mode="normal" in2="BackgroundImageFix" result="effect1_dropShadow_491_209"/>
<feBlend mode="normal" in="SourceGraphic" in2="effect1_dropShadow_491_209" result="shape"/>
</filter>
</defs>
</svg>
