<svg width="31" height="33" viewBox="0 0 31 33" fill="none" xmlns="http://www.w3.org/2000/svg">
<g filter="url(#filter0_d_281_603)">
<path d="M15.5 25C17.2259 25 18.625 23.6009 18.625 21.875H12.375C12.375 23.6009 13.7741 25 15.5 25Z" fill="#00529E"/>
<path d="M17.0549 1.71724C17.0599 1.66634 17.0625 1.61472 17.0625 1.5625C17.0625 0.699555 16.3629 0 15.5 0C14.6371 0 13.9375 0.699555 13.9375 1.5625C13.9375 1.61472 13.9401 1.66635 13.9451 1.71725C10.3753 2.4382 7.68753 5.59272 7.68753 9.375C7.68753 11.09 6.90625 18.75 4.5625 20.3125H26.4375C24.0938 18.75 23.3125 11.09 23.3125 9.375C23.3125 5.59269 20.6247 2.43816 17.0549 1.71724Z" fill="#00529E"/>
</g>
<defs>
<filter id="filter0_d_281_603" x="-1" y="0" width="33" height="33" filterUnits="userSpaceOnUse" color-interpolation-filters="sRGB">
<feFlood flood-opacity="0" result="BackgroundImageFix"/>
<feColorMatrix in="SourceAlpha" type="matrix" values="0 0 0 0 0 0 0 0 0 0 0 0 0 0 0 0 0 0 127 0" result="hardAlpha"/>
<feOffset dy="4"/>
<feGaussianBlur stdDeviation="2"/>
<feComposite in2="hardAlpha" operator="out"/>
<feColorMatrix type="matrix" values="0 0 0 0 0 0 0 0 0 0 0 0 0 0 0 0 0 0 0.25 0"/>
<feBlend mode="normal" in2="BackgroundImageFix" result="effect1_dropShadow_281_603"/>
<feBlend mode="normal" in="SourceGraphic" in2="effect1_dropShadow_281_603" result="shape"/>
</filter>
</defs>
</svg>
