<svg width="77" height="65" viewBox="0 0 77 65" fill="none" xmlns="http://www.w3.org/2000/svg">
<g filter="url(#filter0_d_402_213)">
<path d="M12.7069 50.6C13.3169 50.73 13.8069 51.035 14.1769 51.515C14.5469 51.985 14.7319 52.525 14.7319 53.135C14.7319 54.015 14.4219 54.715 13.8019 55.235C13.1919 55.745 12.3369 56 11.2369 56H6.33186V45.47H11.0719C12.1419 45.47 12.9769 45.715 13.5769 46.205C14.1869 46.695 14.4919 47.36 14.4919 48.2C14.4919 48.82 14.3269 49.335 13.9969 49.745C13.6769 50.155 13.2469 50.44 12.7069 50.6ZM8.89686 49.73H10.5769C10.9969 49.73 11.3169 49.64 11.5369 49.46C11.7669 49.27 11.8819 48.995 11.8819 48.635C11.8819 48.275 11.7669 48 11.5369 47.81C11.3169 47.62 10.9969 47.525 10.5769 47.525H8.89686V49.73ZM10.7869 53.93C11.2169 53.93 11.5469 53.835 11.7769 53.645C12.0169 53.445 12.1369 53.16 12.1369 52.79C12.1369 52.42 12.0119 52.13 11.7619 51.92C11.5219 51.71 11.1869 51.605 10.7569 51.605H8.89686V53.93H10.7869ZM24.1096 51.68C24.1096 51.92 24.0946 52.17 24.0646 52.43H18.2596C18.2996 52.95 18.4646 53.35 18.7546 53.63C19.0546 53.9 19.4196 54.035 19.8496 54.035C20.4896 54.035 20.9346 53.765 21.1846 53.225H23.9146C23.7746 53.775 23.5196 54.27 23.1496 54.71C22.7896 55.15 22.3346 55.495 21.7846 55.745C21.2346 55.995 20.6196 56.12 19.9396 56.12C19.1196 56.12 18.3896 55.945 17.7496 55.595C17.1096 55.245 16.6096 54.745 16.2496 54.095C15.8896 53.445 15.7096 52.685 15.7096 51.815C15.7096 50.945 15.8846 50.185 16.2346 49.535C16.5946 48.885 17.0946 48.385 17.7346 48.035C18.3746 47.685 19.1096 47.51 19.9396 47.51C20.7496 47.51 21.4696 47.68 22.0996 48.02C22.7296 48.36 23.2196 48.845 23.5696 49.475C23.9296 50.105 24.1096 50.84 24.1096 51.68ZM21.4846 51.005C21.4846 50.565 21.3346 50.215 21.0346 49.955C20.7346 49.695 20.3596 49.565 19.9096 49.565C19.4796 49.565 19.1146 49.69 18.8146 49.94C18.5246 50.19 18.3446 50.545 18.2746 51.005H21.4846ZM28.0277 49.025C28.3277 48.565 28.7027 48.205 29.1527 47.945C29.6027 47.675 30.1027 47.54 30.6527 47.54V50.255H29.9477C29.3077 50.255 28.8277 50.395 28.5077 50.675C28.1877 50.945 28.0277 51.425 28.0277 52.115V56H25.4627V47.63H28.0277V49.025ZM31.3687 51.8C31.3687 50.94 31.5287 50.185 31.8487 49.535C32.1787 48.885 32.6237 48.385 33.1837 48.035C33.7437 47.685 34.3687 47.51 35.0587 47.51C35.6487 47.51 36.1637 47.63 36.6037 47.87C37.0537 48.11 37.3987 48.425 37.6387 48.815V47.63H40.2037V56H37.6387V54.815C37.3887 55.205 37.0387 55.52 36.5887 55.76C36.1487 56 35.6337 56.12 35.0437 56.12C34.3637 56.12 33.7437 55.945 33.1837 55.595C32.6237 55.235 32.1787 54.73 31.8487 54.08C31.5287 53.42 31.3687 52.66 31.3687 51.8ZM37.6387 51.815C37.6387 51.175 37.4587 50.67 37.0987 50.3C36.7487 49.93 36.3187 49.745 35.8087 49.745C35.2987 49.745 34.8637 49.93 34.5037 50.3C34.1537 50.66 33.9787 51.16 33.9787 51.8C33.9787 52.44 34.1537 52.95 34.5037 53.33C34.8637 53.7 35.2987 53.885 35.8087 53.885C36.3187 53.885 36.7487 53.7 37.0987 53.33C37.4587 52.96 37.6387 52.455 37.6387 51.815ZM47.1594 47.54C48.1394 47.54 48.9194 47.86 49.4994 48.5C50.0894 49.13 50.3844 50 50.3844 51.11V56H47.8344V51.455C47.8344 50.895 47.6894 50.46 47.3994 50.15C47.1094 49.84 46.7194 49.685 46.2294 49.685C45.7394 49.685 45.3494 49.84 45.0594 50.15C44.7694 50.46 44.6244 50.895 44.6244 51.455V56H42.0594V47.63H44.6244V48.74C44.8844 48.37 45.2344 48.08 45.6744 47.87C46.1144 47.65 46.6094 47.54 47.1594 47.54ZM51.6568 51.8C51.6568 50.94 51.8168 50.185 52.1368 49.535C52.4668 48.885 52.9118 48.385 53.4718 48.035C54.0318 47.685 54.6568 47.51 55.3468 47.51C55.8968 47.51 56.3968 47.625 56.8468 47.855C57.3068 48.085 57.6668 48.395 57.9268 48.785V44.9H60.4918V56H57.9268V54.8C57.6868 55.2 57.3418 55.52 56.8918 55.76C56.4518 56 55.9368 56.12 55.3468 56.12C54.6568 56.12 54.0318 55.945 53.4718 55.595C52.9118 55.235 52.4668 54.73 52.1368 54.08C51.8168 53.42 51.6568 52.66 51.6568 51.8ZM57.9268 51.815C57.9268 51.175 57.7468 50.67 57.3868 50.3C57.0368 49.93 56.6068 49.745 56.0968 49.745C55.5868 49.745 55.1518 49.93 54.7918 50.3C54.4418 50.66 54.2668 51.16 54.2668 51.8C54.2668 52.44 54.4418 52.95 54.7918 53.33C55.1518 53.7 55.5868 53.885 56.0968 53.885C56.6068 53.885 57.0368 53.7 57.3868 53.33C57.7468 52.96 57.9268 52.455 57.9268 51.815ZM61.8375 51.8C61.8375 50.94 61.9975 50.185 62.3175 49.535C62.6475 48.885 63.0925 48.385 63.6525 48.035C64.2125 47.685 64.8375 47.51 65.5275 47.51C66.1175 47.51 66.6325 47.63 67.0725 47.87C67.5225 48.11 67.8675 48.425 68.1075 48.815V47.63H70.6725V56H68.1075V54.815C67.8575 55.205 67.5075 55.52 67.0575 55.76C66.6175 56 66.1025 56.12 65.5125 56.12C64.8325 56.12 64.2125 55.945 63.6525 55.595C63.0925 55.235 62.6475 54.73 62.3175 54.08C61.9975 53.42 61.8375 52.66 61.8375 51.8ZM68.1075 51.815C68.1075 51.175 67.9275 50.67 67.5675 50.3C67.2175 49.93 66.7875 49.745 66.2775 49.745C65.7675 49.745 65.3325 49.93 64.9725 50.3C64.6225 50.66 64.4475 51.16 64.4475 51.8C64.4475 52.44 64.6225 52.95 64.9725 53.33C65.3325 53.7 65.7675 53.885 66.2775 53.885C66.7875 53.885 67.2175 53.7 67.5675 53.33C67.9275 52.96 68.1075 52.455 68.1075 51.815Z" fill="white"/>
</g>
<g filter="url(#filter1_d_402_213)">
<path d="M40.1437 0.579505C39.6321 0.140165 38.8027 0.140165 38.2911 0.579505L22.5714 14.0795C22.3258 14.2905 22.1877 14.5766 22.1877 14.875V30.625C22.1877 31.2463 22.7742 31.75 23.4977 31.75H35.2875C36.011 31.75 36.5974 31.2463 36.5974 30.625V21.625H41.8373V30.625C41.8373 31.2463 42.4238 31.75 43.1473 31.75H54.9371C55.6605 31.75 56.247 31.2463 56.247 30.625V14.875C56.247 14.5766 56.109 14.2905 55.8634 14.0795L52.3171 11.034V3.625C52.3171 3.00368 51.7306 2.5 51.0071 2.5H48.3872C47.6637 2.5 47.0772 3.00368 47.0772 3.625V6.53401L40.1437 0.579505ZM24.8077 29.5V15.341L39.2174 2.96599L53.6271 15.341V29.5H44.4573V20.5C44.4573 19.8787 43.8708 19.375 43.1473 19.375H35.2875C34.564 19.375 33.9775 19.8787 33.9775 20.5V29.5H24.8077Z" fill="white"/>
</g>
<defs>
<filter id="filter0_d_402_213" x="2.33191" y="44.8999" width="72.3406" height="19.2202" filterUnits="userSpaceOnUse" color-interpolation-filters="sRGB">
<feFlood flood-opacity="0" result="BackgroundImageFix"/>
<feColorMatrix in="SourceAlpha" type="matrix" values="0 0 0 0 0 0 0 0 0 0 0 0 0 0 0 0 0 0 127 0" result="hardAlpha"/>
<feOffset dy="4"/>
<feGaussianBlur stdDeviation="2"/>
<feComposite in2="hardAlpha" operator="out"/>
<feColorMatrix type="matrix" values="0 0 0 0 0 0 0 0 0 0 0 0 0 0 0 0 0 0 0.25 0"/>
<feBlend mode="normal" in2="BackgroundImageFix" result="effect1_dropShadow_402_213"/>
<feBlend mode="normal" in="SourceGraphic" in2="effect1_dropShadow_402_213" result="shape"/>
</filter>
<filter id="filter1_d_402_213" x="18.1877" y="0.25" width="42.0593" height="39.5" filterUnits="userSpaceOnUse" color-interpolation-filters="sRGB">
<feFlood flood-opacity="0" result="BackgroundImageFix"/>
<feColorMatrix in="SourceAlpha" type="matrix" values="0 0 0 0 0 0 0 0 0 0 0 0 0 0 0 0 0 0 127 0" result="hardAlpha"/>
<feOffset dy="4"/>
<feGaussianBlur stdDeviation="2"/>
<feComposite in2="hardAlpha" operator="out"/>
<feColorMatrix type="matrix" values="0 0 0 0 0 0 0 0 0 0 0 0 0 0 0 0 0 0 0.25 0"/>
<feBlend mode="normal" in2="BackgroundImageFix" result="effect1_dropShadow_402_213"/>
<feBlend mode="normal" in="SourceGraphic" in2="effect1_dropShadow_402_213" result="shape"/>
</filter>
</defs>
</svg>
