<svg width="100" height="100" viewBox="0 0 100 100" fill="none" xmlns="http://www.w3.org/2000/svg">
<g filter="url(#filter0_d_291_856)">
<path d="M15 24.1377C19.4249 22.2888 25.7695 20.297 31.9384 19.6748C38.5899 19.0039 44.232 19.9902 47.5 23.4334V72.1626C42.8255 69.5124 36.9032 69.1487 31.4366 69.7001C25.5346 70.2954 19.5885 72.0055 15 73.7551V24.1377ZM52.5 23.4334C55.768 19.9903 61.4101 19.0039 68.0616 19.6748C74.2305 20.297 80.5751 22.2888 85 24.1377V73.7551C80.4115 72.0055 74.4654 70.2954 68.5634 69.7001C63.0968 69.1487 57.1745 69.5124 52.5 72.1626V23.4334ZM50 18.9151C45.0754 14.6821 37.9342 14.0447 31.4366 14.7001C23.8661 15.4637 16.2229 18.0615 11.4655 20.224C10.573 20.6297 10 21.5196 10 22.4999V77.5C10 78.35 10.4319 79.1417 11.1465 79.6019C11.8612 80.0621 12.7607 80.1276 13.5345 79.7759C17.9437 77.7717 25.0506 75.3696 31.9384 74.6748C38.9783 73.9648 44.8873 75.1111 48.0478 79.0617C48.5223 79.6547 49.2405 79.9999 50 79.9999C50.7595 79.9999 51.4777 79.6547 51.9522 79.0617C55.1127 75.1111 61.0217 73.9648 68.0616 74.6748C74.9494 75.3696 82.0563 77.7717 86.4655 79.7759C87.2393 80.1276 88.1388 80.0621 88.8535 79.6019C89.5681 79.1417 90 78.35 90 77.5V22.4999C90 21.5196 89.427 20.6297 88.5345 20.224C83.7771 18.0615 76.1339 15.4637 68.5634 14.7001C62.0658 14.0447 54.9246 14.6821 50 18.9151Z" fill="white"/>
</g>
<defs>
<filter id="filter0_d_291_856" x="6" y="10" width="88" height="88" filterUnits="userSpaceOnUse" color-interpolation-filters="sRGB">
<feFlood flood-opacity="0" result="BackgroundImageFix"/>
<feColorMatrix in="SourceAlpha" type="matrix" values="0 0 0 0 0 0 0 0 0 0 0 0 0 0 0 0 0 0 127 0" result="hardAlpha"/>
<feOffset dy="4"/>
<feGaussianBlur stdDeviation="2"/>
<feComposite in2="hardAlpha" operator="out"/>
<feColorMatrix type="matrix" values="0 0 0 0 0 0 0 0 0 0 0 0 0 0 0 0 0 0 0.25 0"/>
<feBlend mode="normal" in2="BackgroundImageFix" result="effect1_dropShadow_291_856"/>
<feBlend mode="normal" in="SourceGraphic" in2="effect1_dropShadow_291_856" result="shape"/>
</filter>
</defs>
</svg>
