<svg width="101" height="89" viewBox="0 0 101 89" fill="none" xmlns="http://www.w3.org/2000/svg">
<g filter="url(#filter0_d_113_973)">
<path d="M79.2311 32.6725C79.2311 31.2845 77.9356 30.1593 76.3376 30.1593H47.4025C45.8045 30.1593 44.509 31.2845 44.509 32.6725C44.509 34.0606 45.8045 35.1858 47.4025 35.1858H76.3376C77.9356 35.1858 79.2311 34.0606 79.2311 32.6725Z" fill="white"/>
<path d="M79.2311 47.7521C79.2311 46.3641 77.9356 45.2389 76.3376 45.2389H47.4025C45.8045 45.2389 44.509 46.3641 44.509 47.7521C44.509 49.1402 45.8045 50.2654 47.4025 50.2654H76.3376C77.9356 50.2654 79.2311 49.1402 79.2311 47.7521Z" fill="white"/>
<path d="M76.3376 60.3185C77.9356 60.3185 79.2311 61.4437 79.2311 62.8318C79.2311 64.2198 77.9356 65.345 76.3376 65.345H47.4025C45.8045 65.345 44.509 64.2198 44.509 62.8318C44.509 61.4437 45.8045 60.3185 47.4025 60.3185H76.3376Z" fill="white"/>
<path d="M85.0181 0C91.4102 0 96.5921 4.50092 96.5921 10.0531V70.3716C96.5921 75.9237 91.4102 80.4247 85.0181 80.4247H15.574C9.18186 80.4247 4 75.9237 4 70.3716V10.0531C4 4.50092 9.18186 0 15.574 0H85.0181ZM15.574 5.02654C12.3779 5.02654 9.78701 7.277 9.78701 10.0531V15.0796H90.8051V10.0531C90.8051 7.277 88.2142 5.02654 85.0181 5.02654H15.574ZM9.78701 20.1062V70.3716C9.78701 73.1477 12.3779 75.3981 15.574 75.3981H27.148V20.1062H9.78701ZM32.935 20.1062V75.3981H85.0181C88.2142 75.3981 90.8051 73.1477 90.8051 70.3716V20.1062H32.935Z" fill="white"/>
</g>
<defs>
<filter id="filter0_d_113_973" x="0" y="0" width="100.592" height="88.4247" filterUnits="userSpaceOnUse" color-interpolation-filters="sRGB">
<feFlood flood-opacity="0" result="BackgroundImageFix"/>
<feColorMatrix in="SourceAlpha" type="matrix" values="0 0 0 0 0 0 0 0 0 0 0 0 0 0 0 0 0 0 127 0" result="hardAlpha"/>
<feOffset dy="4"/>
<feGaussianBlur stdDeviation="2"/>
<feComposite in2="hardAlpha" operator="out"/>
<feColorMatrix type="matrix" values="0 0 0 0 0 0 0 0 0 0 0 0 0 0 0 0 0 0 0.25 0"/>
<feBlend mode="normal" in2="BackgroundImageFix" result="effect1_dropShadow_113_973"/>
<feBlend mode="normal" in="SourceGraphic" in2="effect1_dropShadow_113_973" result="shape"/>
</filter>
</defs>
</svg>
