<svg width="172" height="26" viewBox="0 0 172 26" fill="none" xmlns="http://www.w3.org/2000/svg">
<g filter="url(#filter0_d_277_344)">
<path d="M6.3382 2.1H7.5582V7.18L17.4982 2.1H19.5382L7.8582 8C9.79154 9 11.7115 9.98667 13.6182 10.96C15.5382 11.92 17.4649 12.9 19.3982 13.9H17.4982L7.5582 8.84V13.9H6.3382V2.1ZM8.6782 10.66L17.1782 15.02L23.3982 15C21.1582 13.84 18.9382 12.68 16.7382 11.52C14.5382 10.3467 12.3182 9.17333 10.0782 8L23.5782 0.979999H17.1782C15.7649 1.72667 14.3515 2.46 12.9382 3.18C11.5249 3.88667 10.1049 4.60667 8.6782 5.34V0.979999H5.2382V15.02H8.6782V10.66ZM13.9982 9.52L15.7582 10.44C16.3982 10.7733 17.0582 11.12 17.7382 11.48C18.4315 11.84 19.1249 12.2 19.8182 12.56C20.5115 12.92 21.1982 13.28 21.8782 13.64C22.5715 14 23.2315 14.34 23.8582 14.66L28.5382 17.44L19.0582 17.46L11.1182 13.38V17.46H6.7982L4.7382 15.52V0.48H9.1782L11.1182 2.54V3.52C11.5715 3.29333 12.0115 3.07333 12.4382 2.86C12.8782 2.63333 13.3315 2.4 13.7982 2.16C14.2649 1.92 14.7582 1.66667 15.2782 1.4C15.8115 1.12 16.3982 0.813333 17.0382 0.48H23.8182L26.3382 3.1L13.9982 9.52ZM43.0098 9.56L38.7898 3.58L34.4698 9.56H43.0098ZM40.8498 8.48H36.6098L38.7498 5.48L40.8498 8.48ZM45.9898 13.9L43.8298 10.8H33.6098C33.2364 11.3067 32.8698 11.8267 32.5098 12.36C32.1631 12.88 31.8031 13.3933 31.4298 13.9H29.8298C31.2431 11.9133 32.6498 9.94667 34.0498 8C35.4631 6.05333 36.8698 4.08667 38.2698 2.1H39.2298L47.4898 13.9H45.9898ZM37.7298 0.979999L27.7298 15.02H31.9698L34.1698 11.92H43.2098L45.3898 15.02H49.6298L39.8298 0.979999H37.7298ZM42.0698 2.54L52.4698 17.46H47.1498L45.1298 15.52L44.3098 14.36H36.4098C36.2498 14.6 36.0698 14.8533 35.8698 15.12C35.6831 15.3867 35.4898 15.6533 35.2898 15.92C35.1031 16.2 34.9164 16.4667 34.7298 16.72C34.5431 16.9867 34.3698 17.2333 34.2098 17.46H28.8698L26.7498 15.52L37.4698 0.48H40.0898L42.0698 2.54ZM64.3827 4.44C64.5427 4.44 64.7094 4.45333 64.8827 4.48C65.0561 4.50667 65.2161 4.55333 65.3627 4.62C65.5094 4.68667 65.6294 4.78 65.7227 4.9C65.8294 5.02 65.8827 5.18 65.8827 5.38C65.8827 5.56667 65.8294 5.72 65.7227 5.84C65.6161 5.96 65.4827 6.05333 65.3227 6.12C65.1761 6.18667 65.0094 6.23333 64.8227 6.26C64.6494 6.28667 64.4961 6.3 64.3627 6.3H56.9627V4.44H64.3827ZM64.3627 7.4C64.6827 7.4 64.9961 7.36667 65.3027 7.3C65.6227 7.22 65.9094 7.1 66.1627 6.94C66.4161 6.78 66.6161 6.57333 66.7627 6.32C66.9227 6.05333 67.0027 5.74 67.0027 5.38C67.0027 5.00667 66.9294 4.68667 66.7827 4.42C66.6361 4.15333 66.4361 3.94 66.1827 3.78C65.9427 3.62 65.6627 3.50667 65.3427 3.44C65.0361 3.36 64.7161 3.32 64.3827 3.32H55.8627V7.4H64.3627ZM66.1827 8.3C65.9961 8.40667 65.7894 8.48667 65.5627 8.54C65.3361 8.59333 65.1227 8.64667 64.9227 8.7C65.6694 9.58 66.4161 10.4467 67.1627 11.3C67.9227 12.1533 68.6827 13.02 69.4427 13.9H67.8227L63.2027 8.6H55.8627V13.9H54.6227V2.1H64.3827C64.9294 2.1 65.4361 2.16 65.9027 2.28C66.3827 2.4 66.7894 2.59333 67.1227 2.86C67.4694 3.12667 67.7361 3.46667 67.9227 3.88C68.1227 4.29333 68.2227 4.79333 68.2227 5.38C68.2227 6.11333 68.0561 6.72 67.7227 7.2C67.3894 7.66667 66.8827 8.03333 66.2027 8.3H66.1827ZM69.3427 5.38C69.3427 4.62 69.2227 3.96667 68.9827 3.42C68.7427 2.86 68.4027 2.4 67.9627 2.04C67.5227 1.68 66.9961 1.41333 66.3827 1.24C65.7827 1.06667 65.1161 0.979999 64.3827 0.979999H53.5427V15.02H56.9627V9.7H62.6827L67.2827 15.02H71.8827L66.8427 9.24C68.5094 8.50667 69.3427 7.22 69.3427 5.38ZM53.0427 15.52V0.48H64.3827C64.9027 0.48 65.4027 0.52 65.8827 0.599999C66.3627 0.666666 66.8427 0.813333 67.3227 1.04C67.8161 1.26667 68.3227 1.59333 68.8427 2.02C69.3761 2.44667 69.9427 3.01333 70.5427 3.72C70.9294 4.10667 71.2294 4.62667 71.4427 5.28C71.6694 5.92 71.7827 6.62 71.7827 7.38C71.7827 8.26 71.5894 9.04 71.2027 9.72C70.8294 10.4 70.2827 10.9533 69.5627 11.38C69.9761 11.86 70.4094 12.36 70.8627 12.88C71.3161 13.4 71.7694 13.9267 72.2227 14.46C72.6761 14.98 73.1227 15.4933 73.5627 16C74.0161 16.52 74.4427 17.0067 74.8427 17.46H69.0827L67.0627 15.52L64.1427 12.14H59.4027V17.46H55.1027L53.0427 15.52ZM77.3882 2.1H78.5882V13.9H77.3882V2.1ZM79.6882 0.979999H76.2882V15.02H79.6882V0.979999ZM75.7882 15.52V0.48H80.1882L82.1282 2.54V17.46H77.8482L75.7882 15.52ZM98.3823 7.4V8.6H88.2023V12.68H100.462V13.9H86.9623V2.1H100.442V3.32H88.2023V7.4H98.3823ZM101.562 4.44V0.979999H85.8423V15.02H101.582V11.56H89.3023V9.7H99.4823V6.3H89.3023V4.44H101.562ZM85.3423 15.52V0.48H102.062L104.002 2.54V6.88H100.942L101.922 7.86V11.06L104.022 13.12V17.46H87.4023L85.3423 15.52ZM118.289 4.44C118.449 4.44 118.616 4.45333 118.789 4.48C118.962 4.50667 119.122 4.55333 119.269 4.62C119.416 4.68667 119.536 4.78 119.629 4.9C119.736 5.02 119.789 5.18 119.789 5.38C119.789 5.56667 119.736 5.72 119.629 5.84C119.522 5.96 119.389 6.05333 119.229 6.12C119.082 6.18667 118.916 6.23333 118.729 6.26C118.556 6.28667 118.402 6.3 118.269 6.3H110.869V4.44H118.289ZM118.269 7.4C118.589 7.4 118.902 7.36667 119.209 7.3C119.529 7.22 119.816 7.1 120.069 6.94C120.322 6.78 120.522 6.57333 120.669 6.32C120.829 6.05333 120.909 5.74 120.909 5.38C120.909 5.00667 120.836 4.68667 120.689 4.42C120.542 4.15333 120.342 3.94 120.089 3.78C119.849 3.62 119.569 3.50667 119.249 3.44C118.942 3.36 118.622 3.32 118.289 3.32H109.769V7.4H118.269ZM120.089 8.3C119.902 8.40667 119.696 8.48667 119.469 8.54C119.242 8.59333 119.029 8.64667 118.829 8.7C119.576 9.58 120.322 10.4467 121.069 11.3C121.829 12.1533 122.589 13.02 123.349 13.9H121.729L117.109 8.6H109.769V13.9H108.529V2.1H118.289C118.836 2.1 119.342 2.16 119.809 2.28C120.289 2.4 120.696 2.59333 121.029 2.86C121.376 3.12667 121.642 3.46667 121.829 3.88C122.029 4.29333 122.129 4.79333 122.129 5.38C122.129 6.11333 121.962 6.72 121.629 7.2C121.296 7.66667 120.789 8.03333 120.109 8.3H120.089ZM123.249 5.38C123.249 4.62 123.129 3.96667 122.889 3.42C122.649 2.86 122.309 2.4 121.869 2.04C121.429 1.68 120.902 1.41333 120.289 1.24C119.689 1.06667 119.022 0.979999 118.289 0.979999H107.449V15.02H110.869V9.7H116.589L121.189 15.02H125.789L120.749 9.24C122.416 8.50667 123.249 7.22 123.249 5.38ZM106.949 15.52V0.48H118.289C118.809 0.48 119.309 0.52 119.789 0.599999C120.269 0.666666 120.749 0.813333 121.229 1.04C121.722 1.26667 122.229 1.59333 122.749 2.02C123.282 2.44667 123.849 3.01333 124.449 3.72C124.836 4.10667 125.136 4.62667 125.349 5.28C125.576 5.92 125.689 6.62 125.689 7.38C125.689 8.26 125.496 9.04 125.109 9.72C124.736 10.4 124.189 10.9533 123.469 11.38C123.882 11.86 124.316 12.36 124.769 12.88C125.222 13.4 125.676 13.9267 126.129 14.46C126.582 14.98 127.029 15.4933 127.469 16C127.922 16.52 128.349 17.0067 128.749 17.46H122.989L120.969 15.52L118.049 12.14H113.309V17.46H109.009L106.949 15.52ZM130.774 14.34V13.2H132.014V14.34H130.774ZM133.114 15.44V12.1H129.674V15.44H133.114ZM129.174 15.94V11.6H133.614L135.554 13.66V17.88H131.234L129.174 15.94ZM139.185 2.1H140.385V13.9H139.185V2.1ZM141.485 0.979999H138.085V15.02H141.485V0.979999ZM137.585 15.52V0.48H141.985L143.925 2.54V17.46H139.645L137.585 15.52ZM157.239 12.68C158.012 12.68 158.739 12.6 159.419 12.44C160.099 12.28 160.686 12.0133 161.179 11.64C161.686 11.2667 162.079 10.7867 162.359 10.2C162.652 9.6 162.799 8.86667 162.799 8C162.799 7.13333 162.652 6.40667 162.359 5.82C162.079 5.22 161.686 4.73333 161.179 4.36C160.686 3.98667 160.099 3.72 159.419 3.56C158.739 3.4 158.012 3.32 157.239 3.32H150.119V12.68H157.239ZM157.239 4.44C157.839 4.44 158.406 4.5 158.939 4.62C159.486 4.72667 159.959 4.92 160.359 5.2C160.772 5.48 161.099 5.84667 161.339 6.3C161.592 6.75333 161.719 7.32 161.719 8C161.719 8.68 161.599 9.25333 161.359 9.72C161.119 10.1733 160.792 10.54 160.379 10.82C159.966 11.0867 159.486 11.28 158.939 11.4C158.406 11.5067 157.839 11.56 157.239 11.56H151.199V4.44H157.239ZM157.239 2.1C158.212 2.1 159.112 2.20667 159.939 2.42C160.766 2.62 161.486 2.96 162.099 3.44C162.712 3.90667 163.192 4.51333 163.539 5.26C163.886 6.00667 164.059 6.92 164.059 8C164.059 9.08 163.886 9.99333 163.539 10.74C163.192 11.4867 162.712 12.1 162.099 12.58C161.486 13.0467 160.766 13.3867 159.939 13.6C159.112 13.8 158.212 13.9 157.239 13.9H148.899V2.1H157.239ZM157.239 15.02C158.399 15.02 159.459 14.8933 160.419 14.64C161.392 14.3867 162.226 13.98 162.919 13.42C163.626 12.86 164.172 12.1333 164.559 11.24C164.959 10.3467 165.159 9.26667 165.159 8C165.159 6.73333 164.959 5.65333 164.559 4.76C164.172 3.86667 163.626 3.14 162.919 2.58C162.226 2.02 161.392 1.61333 160.419 1.36C159.459 1.10667 158.399 0.979999 157.239 0.979999H147.799V15.02H157.239ZM147.299 0.48H157.239C157.999 0.48 158.732 0.52 159.439 0.599999C160.146 0.666666 160.839 0.826666 161.519 1.08C162.212 1.33333 162.899 1.70667 163.579 2.2C164.272 2.69333 164.979 3.36 165.699 4.2C166.299 4.8 166.766 5.62 167.099 6.66C167.432 7.68667 167.599 8.8 167.599 10C167.599 11.3467 167.392 12.4933 166.979 13.44C166.566 14.3867 165.986 15.1533 165.239 15.74C164.506 16.34 163.626 16.7733 162.599 17.04C161.572 17.32 160.452 17.46 159.239 17.46H149.359L147.299 15.52V0.48ZM153.639 11.06H157.239C157.772 11.06 158.279 11.0133 158.759 10.92C159.239 10.8133 159.659 10.6467 160.019 10.42C160.392 10.18 160.686 9.86667 160.899 9.48C161.112 9.08 161.219 8.58667 161.219 8C161.219 7.70667 161.186 7.41333 161.119 7.12C160.532 6.96 159.906 6.88 159.239 6.88H153.639V11.06Z" fill="white"/>
</g>
<defs>
<filter id="filter0_d_277_344" x="0.73822" y="0.47998" width="170.861" height="25.3999" filterUnits="userSpaceOnUse" color-interpolation-filters="sRGB">
<feFlood flood-opacity="0" result="BackgroundImageFix"/>
<feColorMatrix in="SourceAlpha" type="matrix" values="0 0 0 0 0 0 0 0 0 0 0 0 0 0 0 0 0 0 127 0" result="hardAlpha"/>
<feOffset dy="4"/>
<feGaussianBlur stdDeviation="2"/>
<feComposite in2="hardAlpha" operator="out"/>
<feColorMatrix type="matrix" values="0 0 0 0 0 0 0 0 0 0 0 0 0 0 0 0 0 0 0.25 0"/>
<feBlend mode="normal" in2="BackgroundImageFix" result="effect1_dropShadow_277_344"/>
<feBlend mode="normal" in="SourceGraphic" in2="effect1_dropShadow_277_344" result="shape"/>
</filter>
</defs>
</svg>
