<svg width="93" height="68" viewBox="0 0 93 68" fill="none" xmlns="http://www.w3.org/2000/svg">
<g filter="url(#filter0_d_402_211)">
<path d="M10.0853 53.02H13.4453V55H7.52033V44.47H10.0853V53.02ZM18.4788 55.12C17.6588 55.12 16.9188 54.945 16.2588 54.595C15.6088 54.245 15.0938 53.745 14.7138 53.095C14.3438 52.445 14.1588 51.685 14.1588 50.815C14.1588 49.955 14.3488 49.2 14.7288 48.55C15.1088 47.89 15.6288 47.385 16.2888 47.035C16.9488 46.685 17.6888 46.51 18.5088 46.51C19.3288 46.51 20.0688 46.685 20.7288 47.035C21.3888 47.385 21.9088 47.89 22.2888 48.55C22.6688 49.2 22.8588 49.955 22.8588 50.815C22.8588 51.675 22.6638 52.435 22.2738 53.095C21.8938 53.745 21.3688 54.245 20.6988 54.595C20.0388 54.945 19.2988 55.12 18.4788 55.12ZM18.4788 52.9C18.9688 52.9 19.3838 52.72 19.7238 52.36C20.0738 52 20.2488 51.485 20.2488 50.815C20.2488 50.145 20.0788 49.63 19.7388 49.27C19.4088 48.91 18.9988 48.73 18.5088 48.73C18.0088 48.73 17.5938 48.91 17.2638 49.27C16.9338 49.62 16.7688 50.135 16.7688 50.815C16.7688 51.485 16.9288 52 17.2488 52.36C17.5788 52.72 17.9888 52.9 18.4788 52.9ZM36.2346 46.63L33.9696 55H31.1346L29.8146 49.57L28.4496 55H25.6296L23.3496 46.63H25.9146L27.0996 52.615L28.5096 46.63H31.2246L32.6496 52.585L33.8196 46.63H36.2346ZM41.0227 55.12C40.2027 55.12 39.4627 54.945 38.8027 54.595C38.1527 54.245 37.6377 53.745 37.2577 53.095C36.8877 52.445 36.7027 51.685 36.7027 50.815C36.7027 49.955 36.8927 49.2 37.2727 48.55C37.6527 47.89 38.1727 47.385 38.8327 47.035C39.4927 46.685 40.2327 46.51 41.0527 46.51C41.8727 46.51 42.6127 46.685 43.2727 47.035C43.9327 47.385 44.4527 47.89 44.8327 48.55C45.2127 49.2 45.4027 49.955 45.4027 50.815C45.4027 51.675 45.2077 52.435 44.8177 53.095C44.4377 53.745 43.9127 54.245 43.2427 54.595C42.5827 54.945 41.8427 55.12 41.0227 55.12ZM41.0227 52.9C41.5127 52.9 41.9277 52.72 42.2677 52.36C42.6177 52 42.7927 51.485 42.7927 50.815C42.7927 50.145 42.6227 49.63 42.2827 49.27C41.9527 48.91 41.5427 48.73 41.0527 48.73C40.5527 48.73 40.1377 48.91 39.8077 49.27C39.4777 49.62 39.3127 50.135 39.3127 50.815C39.3127 51.485 39.4727 52 39.7927 52.36C40.1227 52.72 40.5327 52.9 41.0227 52.9ZM51.8635 46.54C52.8435 46.54 53.6235 46.86 54.2035 47.5C54.7935 48.13 55.0885 49 55.0885 50.11V55H52.5385V50.455C52.5385 49.895 52.3935 49.46 52.1035 49.15C51.8135 48.84 51.4235 48.685 50.9335 48.685C50.4435 48.685 50.0535 48.84 49.7635 49.15C49.4735 49.46 49.3285 49.895 49.3285 50.455V55H46.7635V46.63H49.3285V47.74C49.5885 47.37 49.9385 47.08 50.3785 46.87C50.8185 46.65 51.3135 46.54 51.8635 46.54ZM60.0509 46.51C60.6409 46.51 61.1559 46.63 61.5959 46.87C62.0459 47.11 62.3909 47.425 62.6309 47.815V46.63H65.1959V54.985C65.1959 55.755 65.0409 56.45 64.7309 57.07C64.4309 57.7 63.9659 58.2 63.3359 58.57C62.7159 58.94 61.9409 59.125 61.0109 59.125C59.7709 59.125 58.7659 58.83 57.9959 58.24C57.2259 57.66 56.7859 56.87 56.6759 55.87H59.2109C59.2909 56.19 59.4809 56.44 59.7809 56.62C60.0809 56.81 60.4509 56.905 60.8909 56.905C61.4209 56.905 61.8409 56.75 62.1509 56.44C62.4709 56.14 62.6309 55.655 62.6309 54.985V53.8C62.3809 54.19 62.0359 54.51 61.5959 54.76C61.1559 55 60.6409 55.12 60.0509 55.12C59.3609 55.12 58.7359 54.945 58.1759 54.595C57.6159 54.235 57.1709 53.73 56.8409 53.08C56.5209 52.42 56.3609 51.66 56.3609 50.8C56.3609 49.94 56.5209 49.185 56.8409 48.535C57.1709 47.885 57.6159 47.385 58.1759 47.035C58.7359 46.685 59.3609 46.51 60.0509 46.51ZM62.6309 50.815C62.6309 50.175 62.4509 49.67 62.0909 49.3C61.7409 48.93 61.3109 48.745 60.8009 48.745C60.2909 48.745 59.8559 48.93 59.4959 49.3C59.1459 49.66 58.9709 50.16 58.9709 50.8C58.9709 51.44 59.1459 51.95 59.4959 52.33C59.8559 52.7 60.2909 52.885 60.8009 52.885C61.3109 52.885 61.7409 52.7 62.0909 52.33C62.4509 51.96 62.6309 51.455 62.6309 50.815ZM66.5416 50.8C66.5416 49.94 66.7016 49.185 67.0216 48.535C67.3516 47.885 67.7966 47.385 68.3566 47.035C68.9166 46.685 69.5416 46.51 70.2316 46.51C70.8216 46.51 71.3366 46.63 71.7766 46.87C72.2266 47.11 72.5716 47.425 72.8116 47.815V46.63H75.3766V55H72.8116V53.815C72.5616 54.205 72.2116 54.52 71.7616 54.76C71.3216 55 70.8066 55.12 70.2166 55.12C69.5366 55.12 68.9166 54.945 68.3566 54.595C67.7966 54.235 67.3516 53.73 67.0216 53.08C66.7016 52.42 66.5416 51.66 66.5416 50.8ZM72.8116 50.815C72.8116 50.175 72.6316 49.67 72.2716 49.3C71.9216 48.93 71.4916 48.745 70.9816 48.745C70.4716 48.745 70.0366 48.93 69.6766 49.3C69.3266 49.66 69.1516 50.16 69.1516 50.8C69.1516 51.44 69.3266 51.95 69.6766 52.33C70.0366 52.7 70.4716 52.885 70.9816 52.885C71.4916 52.885 71.9216 52.7 72.2716 52.33C72.6316 51.96 72.8116 51.455 72.8116 50.815ZM82.3322 46.54C83.3122 46.54 84.0922 46.86 84.6722 47.5C85.2622 48.13 85.5572 49 85.5572 50.11V55H83.0072V50.455C83.0072 49.895 82.8622 49.46 82.5722 49.15C82.2822 48.84 81.8922 48.685 81.4022 48.685C80.9122 48.685 80.5222 48.84 80.2322 49.15C79.9422 49.46 79.7972 49.895 79.7972 50.455V55H77.2322V46.63H79.7972V47.74C80.0572 47.37 80.4072 47.08 80.8472 46.87C81.2872 46.65 81.7822 46.54 82.3322 46.54Z" fill="white"/>
</g>
<g filter="url(#filter1_d_402_211)">
<path d="M44.0625 0.25C41.8883 0.25 40.125 1.76013 40.125 3.62445V4.75H30.9375C28.7629 4.75 27 6.26104 27 8.125V26.125C27 27.989 28.7629 29.5 30.9375 29.5H65.0625C67.2371 29.5 69 27.989 69 26.125V8.125C69 6.26104 67.2371 4.75 65.0625 4.75H55.875V3.62445C55.875 1.76013 54.1117 0.25 51.9375 0.25H44.0625ZM44.0625 2.5H51.9375C52.6628 2.5 53.25 3.00542 53.25 3.62638V4.75H42.75V3.62445C42.75 3.00349 43.3372 2.5 44.0625 2.5ZM49.0145 18.0574L66.375 14.0893V26.125C66.375 26.7463 65.7874 27.25 65.0625 27.25H30.9375C30.2126 27.25 29.625 26.7463 29.625 26.125V14.0893L46.9855 18.0574C47.6502 18.2094 48.3498 18.2094 49.0145 18.0574ZM30.9375 7H65.0625C65.7874 7 66.375 7.50368 66.375 8.125V11.7607L48.3382 15.8834C48.1166 15.934 47.8834 15.934 47.6618 15.8834L29.625 11.7607V8.125C29.625 7.50368 30.2126 7 30.9375 7Z" fill="white"/>
</g>
<defs>
<filter id="filter0_d_402_211" x="3.52032" y="44.47" width="86.0369" height="22.655" filterUnits="userSpaceOnUse" color-interpolation-filters="sRGB">
<feFlood flood-opacity="0" result="BackgroundImageFix"/>
<feColorMatrix in="SourceAlpha" type="matrix" values="0 0 0 0 0 0 0 0 0 0 0 0 0 0 0 0 0 0 127 0" result="hardAlpha"/>
<feOffset dy="4"/>
<feGaussianBlur stdDeviation="2"/>
<feComposite in2="hardAlpha" operator="out"/>
<feColorMatrix type="matrix" values="0 0 0 0 0 0 0 0 0 0 0 0 0 0 0 0 0 0 0.25 0"/>
<feBlend mode="normal" in2="BackgroundImageFix" result="effect1_dropShadow_402_211"/>
<feBlend mode="normal" in="SourceGraphic" in2="effect1_dropShadow_402_211" result="shape"/>
</filter>
<filter id="filter1_d_402_211" x="23" y="0.25" width="50" height="37.25" filterUnits="userSpaceOnUse" color-interpolation-filters="sRGB">
<feFlood flood-opacity="0" result="BackgroundImageFix"/>
<feColorMatrix in="SourceAlpha" type="matrix" values="0 0 0 0 0 0 0 0 0 0 0 0 0 0 0 0 0 0 127 0" result="hardAlpha"/>
<feOffset dy="4"/>
<feGaussianBlur stdDeviation="2"/>
<feComposite in2="hardAlpha" operator="out"/>
<feColorMatrix type="matrix" values="0 0 0 0 0 0 0 0 0 0 0 0 0 0 0 0 0 0 0.25 0"/>
<feBlend mode="normal" in2="BackgroundImageFix" result="effect1_dropShadow_402_211"/>
<feBlend mode="normal" in="SourceGraphic" in2="effect1_dropShadow_402_211" result="shape"/>
</filter>
</defs>
</svg>
