<svg width="85" height="67" viewBox="0 0 85 67" fill="none" xmlns="http://www.w3.org/2000/svg">
<g filter="url(#filter0_d_402_209)">
<path d="M16.141 58H13.576L9.28602 51.505V58H6.72102V47.47H9.28602L13.576 53.995V47.47H16.141V58ZM21.8103 58.12C20.9903 58.12 20.2503 57.945 19.5903 57.595C18.9403 57.245 18.4253 56.745 18.0453 56.095C17.6753 55.445 17.4903 54.685 17.4903 53.815C17.4903 52.955 17.6803 52.2 18.0603 51.55C18.4403 50.89 18.9603 50.385 19.6203 50.035C20.2803 49.685 21.0203 49.51 21.8403 49.51C22.6603 49.51 23.4003 49.685 24.0603 50.035C24.7203 50.385 25.2403 50.89 25.6203 51.55C26.0003 52.2 26.1903 52.955 26.1903 53.815C26.1903 54.675 25.9953 55.435 25.6053 56.095C25.2253 56.745 24.7003 57.245 24.0303 57.595C23.3703 57.945 22.6303 58.12 21.8103 58.12ZM21.8103 55.9C22.3003 55.9 22.7153 55.72 23.0553 55.36C23.4053 55 23.5803 54.485 23.5803 53.815C23.5803 53.145 23.4103 52.63 23.0703 52.27C22.7403 51.91 22.3303 51.73 21.8403 51.73C21.3403 51.73 20.9253 51.91 20.5953 52.27C20.2653 52.62 20.1003 53.135 20.1003 53.815C20.1003 54.485 20.2603 55 20.5803 55.36C20.9103 55.72 21.3203 55.9 21.8103 55.9ZM32.2161 55.825V58H30.9111C29.9811 58 29.2561 57.775 28.7361 57.325C28.2161 56.865 27.9561 56.12 27.9561 55.09V51.76H26.9361V49.63H27.9561V47.59H30.5211V49.63H32.2011V51.76H30.5211V55.12C30.5211 55.37 30.5811 55.55 30.7011 55.66C30.8211 55.77 31.0211 55.825 31.3011 55.825H32.2161ZM34.9348 48.76C34.4848 48.76 34.1148 48.63 33.8248 48.37C33.5448 48.1 33.4048 47.77 33.4048 47.38C33.4048 46.98 33.5448 46.65 33.8248 46.39C34.1148 46.12 34.4848 45.985 34.9348 45.985C35.3748 45.985 35.7348 46.12 36.0148 46.39C36.3048 46.65 36.4498 46.98 36.4498 47.38C36.4498 47.77 36.3048 48.1 36.0148 48.37C35.7348 48.63 35.3748 48.76 34.9348 48.76ZM36.2098 49.63V58H33.6448V49.63H36.2098ZM42.2687 51.76H40.8887V58H38.3237V51.76H37.3937V49.63H38.3237V49.39C38.3237 48.36 38.6187 47.58 39.2087 47.05C39.7987 46.51 40.6637 46.24 41.8037 46.24C41.9937 46.24 42.1337 46.245 42.2237 46.255V48.43C41.7337 48.4 41.3887 48.47 41.1887 48.64C40.9887 48.81 40.8887 49.115 40.8887 49.555V49.63H42.2687V51.76ZM44.7639 48.76C44.3139 48.76 43.9439 48.63 43.6539 48.37C43.3739 48.1 43.2339 47.77 43.2339 47.38C43.2339 46.98 43.3739 46.65 43.6539 46.39C43.9439 46.12 44.3139 45.985 44.7639 45.985C45.2039 45.985 45.5639 46.12 45.8439 46.39C46.1339 46.65 46.2789 46.98 46.2789 47.38C46.2789 47.77 46.1339 48.1 45.8439 48.37C45.5639 48.63 45.2039 48.76 44.7639 48.76ZM46.0389 49.63V58H43.4739V49.63H46.0389ZM53.0128 58L50.4628 54.49V58H47.8978V46.9H50.4628V53.035L52.9978 49.63H56.1628L52.6828 53.83L56.1928 58H53.0128ZM56.6602 53.8C56.6602 52.94 56.8202 52.185 57.1402 51.535C57.4702 50.885 57.9152 50.385 58.4752 50.035C59.0352 49.685 59.6602 49.51 60.3502 49.51C60.9402 49.51 61.4552 49.63 61.8952 49.87C62.3452 50.11 62.6902 50.425 62.9302 50.815V49.63H65.4952V58H62.9302V56.815C62.6802 57.205 62.3302 57.52 61.8802 57.76C61.4402 58 60.9252 58.12 60.3352 58.12C59.6552 58.12 59.0352 57.945 58.4752 57.595C57.9152 57.235 57.4702 56.73 57.1402 56.08C56.8202 55.42 56.6602 54.66 56.6602 53.8ZM62.9302 53.815C62.9302 53.175 62.7502 52.67 62.3902 52.3C62.0402 51.93 61.6102 51.745 61.1002 51.745C60.5902 51.745 60.1552 51.93 59.7952 52.3C59.4452 52.66 59.2702 53.16 59.2702 53.8C59.2702 54.44 59.4452 54.95 59.7952 55.33C60.1552 55.7 60.5902 55.885 61.1002 55.885C61.6102 55.885 62.0402 55.7 62.3902 55.33C62.7502 54.96 62.9302 54.455 62.9302 53.815ZM70.7559 58.12C70.0259 58.12 69.3759 57.995 68.8059 57.745C68.2359 57.495 67.7859 57.155 67.4559 56.725C67.1259 56.285 66.9409 55.795 66.9009 55.255H69.4359C69.4659 55.545 69.6009 55.78 69.8409 55.96C70.0809 56.14 70.3759 56.23 70.7259 56.23C71.0459 56.23 71.2909 56.17 71.4609 56.05C71.6409 55.92 71.7309 55.755 71.7309 55.555C71.7309 55.315 71.6059 55.14 71.3559 55.03C71.1059 54.91 70.7009 54.78 70.1409 54.64C69.5409 54.5 69.0409 54.355 68.6409 54.205C68.2409 54.045 67.8959 53.8 67.6059 53.47C67.3159 53.13 67.1709 52.675 67.1709 52.105C67.1709 51.625 67.3009 51.19 67.5609 50.8C67.8309 50.4 68.2209 50.085 68.7309 49.855C69.2509 49.625 69.8659 49.51 70.5759 49.51C71.6259 49.51 72.4509 49.77 73.0509 50.29C73.6609 50.81 74.0109 51.5 74.1009 52.36H71.7309C71.6909 52.07 71.5609 51.84 71.3409 51.67C71.1309 51.5 70.8509 51.415 70.5009 51.415C70.2009 51.415 69.9709 51.475 69.8109 51.595C69.6509 51.705 69.5709 51.86 69.5709 52.06C69.5709 52.3 69.6959 52.48 69.9459 52.6C70.2059 52.72 70.6059 52.84 71.1459 52.96C71.7659 53.12 72.2709 53.28 72.6609 53.44C73.0509 53.59 73.3909 53.84 73.6809 54.19C73.9809 54.53 74.1359 54.99 74.1459 55.57C74.1459 56.06 74.0059 56.5 73.7259 56.89C73.4559 57.27 73.0609 57.57 72.5409 57.79C72.0309 58.01 71.4359 58.12 70.7559 58.12ZM77.0052 48.76C76.5552 48.76 76.1852 48.63 75.8952 48.37C75.6152 48.1 75.4752 47.77 75.4752 47.38C75.4752 46.98 75.6152 46.65 75.8952 46.39C76.1852 46.12 76.5552 45.985 77.0052 45.985C77.4452 45.985 77.8052 46.12 78.0852 46.39C78.3752 46.65 78.5202 46.98 78.5202 47.38C78.5202 47.77 78.3752 48.1 78.0852 48.37C77.8052 48.63 77.4452 48.76 77.0052 48.76ZM78.2802 49.63V58H75.7152V49.63H78.2802Z" fill="white"/>
</g>
<g filter="url(#filter1_d_402_209)">
<path d="M41.5 36C44.4685 36 46.875 33.9853 46.875 31.5H36.125C36.125 33.9853 38.5315 36 41.5 36Z" fill="white"/>
<path d="M41.5 4.31606L39.3575 4.67832C34.4467 5.50865 30.7501 9.14542 30.7501 13.5C30.7501 14.9126 30.389 18.4438 29.5169 21.9199C29.0839 23.6455 28.5047 25.4422 27.7349 27H55.2651C54.4953 25.4422 53.9161 23.6455 53.4832 21.9198C52.6111 18.4438 52.2501 14.9126 52.2501 13.5C52.2501 9.14539 48.5534 5.5086 43.6425 4.6783L41.5 4.31606ZM58.2144 27C58.8144 28.0066 59.5102 28.8022 60.3125 29.25H22.6875C23.4898 28.8022 24.1856 28.0066 24.7856 27C27.2004 22.9486 28.0626 15.4781 28.0626 13.5C28.0626 8.05351 32.6855 3.51101 38.8255 2.47284C38.8169 2.39954 38.8125 2.3252 38.8125 2.25C38.8125 1.00736 40.0157 0 41.5 0C42.9843 0 44.1875 1.00736 44.1875 2.25C44.1875 2.32519 44.1831 2.39953 44.1745 2.47283C50.3145 3.51095 54.9376 8.05348 54.9376 13.5C54.9376 15.4781 55.7996 22.9486 58.2144 27Z" fill="white"/>
</g>
<defs>
<filter id="filter0_d_402_209" x="2.72102" y="45.9851" width="79.7991" height="20.135" filterUnits="userSpaceOnUse" color-interpolation-filters="sRGB">
<feFlood flood-opacity="0" result="BackgroundImageFix"/>
<feColorMatrix in="SourceAlpha" type="matrix" values="0 0 0 0 0 0 0 0 0 0 0 0 0 0 0 0 0 0 127 0" result="hardAlpha"/>
<feOffset dy="4"/>
<feGaussianBlur stdDeviation="2"/>
<feComposite in2="hardAlpha" operator="out"/>
<feColorMatrix type="matrix" values="0 0 0 0 0 0 0 0 0 0 0 0 0 0 0 0 0 0 0.25 0"/>
<feBlend mode="normal" in2="BackgroundImageFix" result="effect1_dropShadow_402_209"/>
<feBlend mode="normal" in="SourceGraphic" in2="effect1_dropShadow_402_209" result="shape"/>
</filter>
<filter id="filter1_d_402_209" x="18.6875" y="0" width="45.625" height="44" filterUnits="userSpaceOnUse" color-interpolation-filters="sRGB">
<feFlood flood-opacity="0" result="BackgroundImageFix"/>
<feColorMatrix in="SourceAlpha" type="matrix" values="0 0 0 0 0 0 0 0 0 0 0 0 0 0 0 0 0 0 127 0" result="hardAlpha"/>
<feOffset dy="4"/>
<feGaussianBlur stdDeviation="2"/>
<feComposite in2="hardAlpha" operator="out"/>
<feColorMatrix type="matrix" values="0 0 0 0 0 0 0 0 0 0 0 0 0 0 0 0 0 0 0.25 0"/>
<feBlend mode="normal" in2="BackgroundImageFix" result="effect1_dropShadow_402_209"/>
<feBlend mode="normal" in="SourceGraphic" in2="effect1_dropShadow_402_209" result="shape"/>
</filter>
</defs>
</svg>
