<svg width="87" height="65" viewBox="0 0 87 65" fill="none" xmlns="http://www.w3.org/2000/svg">
<g filter="url(#filter0_d_402_210)">
<path d="M15.3945 48.86C15.3945 49.47 15.2545 50.03 14.9745 50.54C14.6945 51.04 14.2645 51.445 13.6845 51.755C13.1045 52.065 12.3845 52.22 11.5245 52.22H9.93445V56H7.36945V45.47H11.5245C12.3645 45.47 13.0745 45.615 13.6545 45.905C14.2345 46.195 14.6695 46.595 14.9595 47.105C15.2495 47.615 15.3945 48.2 15.3945 48.86ZM11.3295 50.18C11.8195 50.18 12.1845 50.065 12.4245 49.835C12.6645 49.605 12.7845 49.28 12.7845 48.86C12.7845 48.44 12.6645 48.115 12.4245 47.885C12.1845 47.655 11.8195 47.54 11.3295 47.54H9.93445V50.18H11.3295ZM24.6198 51.68C24.6198 51.92 24.6048 52.17 24.5748 52.43H18.7698C18.8098 52.95 18.9748 53.35 19.2648 53.63C19.5648 53.9 19.9298 54.035 20.3598 54.035C20.9998 54.035 21.4448 53.765 21.6948 53.225H24.4248C24.2848 53.775 24.0298 54.27 23.6598 54.71C23.2998 55.15 22.8448 55.495 22.2948 55.745C21.7448 55.995 21.1298 56.12 20.4498 56.12C19.6298 56.12 18.8998 55.945 18.2598 55.595C17.6198 55.245 17.1198 54.745 16.7598 54.095C16.3998 53.445 16.2198 52.685 16.2198 51.815C16.2198 50.945 16.3948 50.185 16.7448 49.535C17.1048 48.885 17.6048 48.385 18.2448 48.035C18.8848 47.685 19.6198 47.51 20.4498 47.51C21.2598 47.51 21.9798 47.68 22.6098 48.02C23.2398 48.36 23.7298 48.845 24.0798 49.475C24.4398 50.105 24.6198 50.84 24.6198 51.68ZM21.9948 51.005C21.9948 50.565 21.8448 50.215 21.5448 49.955C21.2448 49.695 20.8698 49.565 20.4198 49.565C19.9898 49.565 19.6248 49.69 19.3248 49.94C19.0348 50.19 18.8548 50.545 18.7848 51.005H21.9948ZM28.538 44.9V56H25.973V44.9H28.538ZM29.8868 51.8C29.8868 50.94 30.0468 50.185 30.3668 49.535C30.6968 48.885 31.1418 48.385 31.7018 48.035C32.2618 47.685 32.8868 47.51 33.5768 47.51C34.1668 47.51 34.6818 47.63 35.1218 47.87C35.5718 48.11 35.9168 48.425 36.1568 48.815V47.63H38.7218V56H36.1568V54.815C35.9068 55.205 35.5568 55.52 35.1068 55.76C34.6668 56 34.1518 56.12 33.5618 56.12C32.8818 56.12 32.2618 55.945 31.7018 55.595C31.1418 55.235 30.6968 54.73 30.3668 54.08C30.0468 53.42 29.8868 52.66 29.8868 51.8ZM36.1568 51.815C36.1568 51.175 35.9768 50.67 35.6168 50.3C35.2668 49.93 34.8368 49.745 34.3268 49.745C33.8168 49.745 33.3818 49.93 33.0218 50.3C32.6718 50.66 32.4968 51.16 32.4968 51.8C32.4968 52.44 32.6718 52.95 33.0218 53.33C33.3818 53.7 33.8168 53.885 34.3268 53.885C34.8368 53.885 35.2668 53.7 35.6168 53.33C35.9768 52.96 36.1568 52.455 36.1568 51.815ZM45.2425 53.825V56H43.9375C43.0075 56 42.2825 55.775 41.7625 55.325C41.2425 54.865 40.9825 54.12 40.9825 53.09V49.76H39.9625V47.63H40.9825V45.59H43.5475V47.63H45.2275V49.76H43.5475V53.12C43.5475 53.37 43.6075 53.55 43.7275 53.66C43.8475 53.77 44.0475 53.825 44.3275 53.825H45.2425ZM47.9612 46.76C47.5112 46.76 47.1412 46.63 46.8512 46.37C46.5712 46.1 46.4312 45.77 46.4312 45.38C46.4312 44.98 46.5712 44.65 46.8512 44.39C47.1412 44.12 47.5112 43.985 47.9612 43.985C48.4012 43.985 48.7612 44.12 49.0412 44.39C49.3312 44.65 49.4762 44.98 49.4762 45.38C49.4762 45.77 49.3312 46.1 49.0412 46.37C48.7612 46.63 48.4012 46.76 47.9612 46.76ZM49.2362 47.63V56H46.6712V47.63H49.2362ZM56.24 47.54C57.2 47.54 57.97 47.86 58.55 48.5C59.13 49.13 59.42 50 59.42 51.11V56H56.87V51.455C56.87 50.895 56.725 50.46 56.435 50.15C56.145 49.84 55.755 49.685 55.265 49.685C54.775 49.685 54.385 49.84 54.095 50.15C53.805 50.46 53.66 50.895 53.66 51.455V56H51.095V44.9H53.66V48.755C53.92 48.385 54.275 48.09 54.725 47.87C55.175 47.65 55.68 47.54 56.24 47.54ZM60.6925 51.8C60.6925 50.94 60.8525 50.185 61.1725 49.535C61.5025 48.885 61.9475 48.385 62.5075 48.035C63.0675 47.685 63.6925 47.51 64.3825 47.51C64.9725 47.51 65.4875 47.63 65.9275 47.87C66.3775 48.11 66.7225 48.425 66.9625 48.815V47.63H69.5275V56H66.9625V54.815C66.7125 55.205 66.3625 55.52 65.9125 55.76C65.4725 56 64.9575 56.12 64.3675 56.12C63.6875 56.12 63.0675 55.945 62.5075 55.595C61.9475 55.235 61.5025 54.73 61.1725 54.08C60.8525 53.42 60.6925 52.66 60.6925 51.8ZM66.9625 51.815C66.9625 51.175 66.7825 50.67 66.4225 50.3C66.0725 49.93 65.6425 49.745 65.1325 49.745C64.6225 49.745 64.1875 49.93 63.8275 50.3C63.4775 50.66 63.3025 51.16 63.3025 51.8C63.3025 52.44 63.4775 52.95 63.8275 53.33C64.1875 53.7 64.6225 53.885 65.1325 53.885C65.6425 53.885 66.0725 53.7 66.4225 53.33C66.7825 52.96 66.9625 52.455 66.9625 51.815ZM76.4831 47.54C77.4631 47.54 78.2431 47.86 78.8231 48.5C79.4131 49.13 79.7081 50 79.7081 51.11V56H77.1581V51.455C77.1581 50.895 77.0131 50.46 76.7231 50.15C76.4331 49.84 76.0431 49.685 75.5531 49.685C75.0631 49.685 74.6731 49.84 74.3831 50.15C74.0931 50.46 73.9481 50.895 73.9481 51.455V56H71.3831V47.63H73.9481V48.74C74.2081 48.37 74.5581 48.08 74.9981 47.87C75.4381 47.65 75.9331 47.54 76.4831 47.54Z" fill="white"/>
</g>
<g filter="url(#filter1_d_402_210)">
<path d="M22.6875 4.36205C25.0659 3.53007 28.4761 2.63377 31.7919 2.35377C35.3671 2.05186 38.3997 2.49571 40.1562 4.04511V25.9733C37.6437 24.7807 34.4605 24.617 31.5222 24.8651C28.3499 25.133 25.1538 25.9026 22.6875 26.6899V4.36205ZM42.8438 4.04511C44.6003 2.49571 47.6329 2.05186 51.2081 2.35377C54.5239 2.63377 57.9341 3.53007 60.3125 4.36205V26.6899C57.8462 25.9026 54.6501 25.133 51.4778 24.8651C48.5395 24.617 45.3563 24.7807 42.8438 25.9733V4.04511ZM41.5 2.0119C38.853 0.107063 35.0146 -0.179793 31.5222 0.115124C27.453 0.458743 23.3448 1.62779 20.7877 2.60091C20.308 2.78346 20 3.18391 20 3.62507V28.3751C20 28.7576 20.2321 29.1139 20.6163 29.321C21.0004 29.528 21.4839 29.5575 21.8998 29.3992C24.2698 28.4974 28.0897 27.4164 31.7919 27.1038C35.5758 26.7842 38.7519 27.3001 40.4507 29.0779C40.7057 29.3447 41.0918 29.5001 41.5 29.5001C41.9082 29.5001 42.2943 29.3447 42.5493 29.0779C44.2481 27.3001 47.4242 26.7842 51.2081 27.1038C54.9103 27.4164 58.7302 28.4974 61.1002 29.3992C61.5161 29.5575 61.9996 29.528 62.3837 29.321C62.7679 29.1139 63 28.7576 63 28.3751V3.62507C63 3.18391 62.692 2.78346 62.2123 2.60091C59.6552 1.62779 55.547 0.458743 51.4778 0.115124C47.9854 -0.179793 44.147 0.107063 41.5 2.0119Z" fill="white"/>
</g>
<defs>
<filter id="filter0_d_402_210" x="3.36945" y="43.9851" width="80.3387" height="20.135" filterUnits="userSpaceOnUse" color-interpolation-filters="sRGB">
<feFlood flood-opacity="0" result="BackgroundImageFix"/>
<feColorMatrix in="SourceAlpha" type="matrix" values="0 0 0 0 0 0 0 0 0 0 0 0 0 0 0 0 0 0 127 0" result="hardAlpha"/>
<feOffset dy="4"/>
<feGaussianBlur stdDeviation="2"/>
<feComposite in2="hardAlpha" operator="out"/>
<feColorMatrix type="matrix" values="0 0 0 0 0 0 0 0 0 0 0 0 0 0 0 0 0 0 0.25 0"/>
<feBlend mode="normal" in2="BackgroundImageFix" result="effect1_dropShadow_402_210"/>
<feBlend mode="normal" in="SourceGraphic" in2="effect1_dropShadow_402_210" result="shape"/>
</filter>
<filter id="filter1_d_402_210" x="16" y="0.0158691" width="51" height="37.4841" filterUnits="userSpaceOnUse" color-interpolation-filters="sRGB">
<feFlood flood-opacity="0" result="BackgroundImageFix"/>
<feColorMatrix in="SourceAlpha" type="matrix" values="0 0 0 0 0 0 0 0 0 0 0 0 0 0 0 0 0 0 127 0" result="hardAlpha"/>
<feOffset dy="4"/>
<feGaussianBlur stdDeviation="2"/>
<feComposite in2="hardAlpha" operator="out"/>
<feColorMatrix type="matrix" values="0 0 0 0 0 0 0 0 0 0 0 0 0 0 0 0 0 0 0.25 0"/>
<feBlend mode="normal" in2="BackgroundImageFix" result="effect1_dropShadow_402_210"/>
<feBlend mode="normal" in="SourceGraphic" in2="effect1_dropShadow_402_210" result="shape"/>
</filter>
</defs>
</svg>
