<svg width="46" height="63" viewBox="0 0 46 63" fill="none" xmlns="http://www.w3.org/2000/svg">
<g filter="url(#filter0_d_402_212)">
<path d="M22.5 16C27.6086 16 31.75 12.4183 31.75 8C31.75 3.58172 27.6086 0 22.5 0C17.3914 0 13.25 3.58172 13.25 8C13.25 12.4183 17.3914 16 22.5 16ZM28.6667 8C28.6667 10.9455 25.9058 13.3333 22.5 13.3333C19.0942 13.3333 16.3333 10.9455 16.3333 8C16.3333 5.05448 19.0942 2.66667 22.5 2.66667C25.9058 2.66667 28.6667 5.05448 28.6667 8Z" fill="white"/>
<path d="M41 29.3333C41 32 37.9167 32 37.9167 32H7.08333C7.08333 32 4 32 4 29.3333C4 26.6667 7.08333 18.6667 22.5 18.6667C37.9167 18.6667 41 26.6667 41 29.3333ZM37.9166 29.324C37.9122 28.666 37.4425 26.6945 35.351 24.8856C33.3398 23.1463 29.5581 21.3333 22.5 21.3333C15.4419 21.3333 11.6601 23.1463 9.64896 24.8856C7.55741 26.6945 7.08773 28.666 7.08333 29.324H37.9166Z" fill="white"/>
</g>
<g filter="url(#filter1_d_402_212)">
<path d="M12.165 47.36C12.165 47.97 12.025 48.53 11.745 49.04C11.465 49.54 11.035 49.945 10.455 50.255C9.87496 50.565 9.15496 50.72 8.29496 50.72H6.70496V54.5H4.13996V43.97H8.29496C9.13496 43.97 9.84496 44.115 10.425 44.405C11.005 44.695 11.44 45.095 11.73 45.605C12.02 46.115 12.165 46.7 12.165 47.36ZM8.09996 48.68C8.58996 48.68 8.95496 48.565 9.19496 48.335C9.43496 48.105 9.55496 47.78 9.55496 47.36C9.55496 46.94 9.43496 46.615 9.19496 46.385C8.95496 46.155 8.58996 46.04 8.09996 46.04H6.70496V48.68H8.09996ZM16.0653 47.525C16.3653 47.065 16.7403 46.705 17.1903 46.445C17.6403 46.175 18.1403 46.04 18.6903 46.04V48.755H17.9853C17.3453 48.755 16.8653 48.895 16.5453 49.175C16.2253 49.445 16.0653 49.925 16.0653 50.615V54.5H13.5003V46.13H16.0653V47.525ZM23.7263 54.62C22.9063 54.62 22.1663 54.445 21.5063 54.095C20.8563 53.745 20.3413 53.245 19.9613 52.595C19.5913 51.945 19.4063 51.185 19.4063 50.315C19.4063 49.455 19.5963 48.7 19.9763 48.05C20.3563 47.39 20.8763 46.885 21.5363 46.535C22.1963 46.185 22.9363 46.01 23.7563 46.01C24.5763 46.01 25.3163 46.185 25.9763 46.535C26.6363 46.885 27.1563 47.39 27.5363 48.05C27.9163 48.7 28.1063 49.455 28.1063 50.315C28.1063 51.175 27.9113 51.935 27.5213 52.595C27.1413 53.245 26.6163 53.745 25.9463 54.095C25.2863 54.445 24.5463 54.62 23.7263 54.62ZM23.7263 52.4C24.2163 52.4 24.6313 52.22 24.9713 51.86C25.3213 51.5 25.4963 50.985 25.4963 50.315C25.4963 49.645 25.3263 49.13 24.9863 48.77C24.6563 48.41 24.2463 48.23 23.7563 48.23C23.2563 48.23 22.8413 48.41 22.5113 48.77C22.1813 49.12 22.0163 49.635 22.0163 50.315C22.0163 50.985 22.1763 51.5 22.4963 51.86C22.8263 52.22 23.2363 52.4 23.7263 52.4ZM33.6671 48.26H32.2871V54.5H29.7221V48.26H28.7921V46.13H29.7221V45.89C29.7221 44.86 30.0171 44.08 30.6071 43.55C31.1971 43.01 32.0621 42.74 33.2021 42.74C33.3921 42.74 33.5321 42.745 33.6221 42.755V44.93C33.1321 44.9 32.7871 44.97 32.5871 45.14C32.3871 45.31 32.2871 45.615 32.2871 46.055V46.13H33.6671V48.26ZM36.1624 45.26C35.7124 45.26 35.3424 45.13 35.0524 44.87C34.7724 44.6 34.6324 44.27 34.6324 43.88C34.6324 43.48 34.7724 43.15 35.0524 42.89C35.3424 42.62 35.7124 42.485 36.1624 42.485C36.6024 42.485 36.9624 42.62 37.2424 42.89C37.5324 43.15 37.6774 43.48 37.6774 43.88C37.6774 44.27 37.5324 44.6 37.2424 44.87C36.9624 45.13 36.6024 45.26 36.1624 45.26ZM37.4374 46.13V54.5H34.8724V46.13H37.4374ZM41.8612 43.4V54.5H39.2962V43.4H41.8612Z" fill="white"/>
</g>
<defs>
<filter id="filter0_d_402_212" x="0" y="0" width="45" height="40" filterUnits="userSpaceOnUse" color-interpolation-filters="sRGB">
<feFlood flood-opacity="0" result="BackgroundImageFix"/>
<feColorMatrix in="SourceAlpha" type="matrix" values="0 0 0 0 0 0 0 0 0 0 0 0 0 0 0 0 0 0 127 0" result="hardAlpha"/>
<feOffset dy="4"/>
<feGaussianBlur stdDeviation="2"/>
<feComposite in2="hardAlpha" operator="out"/>
<feColorMatrix type="matrix" values="0 0 0 0 0 0 0 0 0 0 0 0 0 0 0 0 0 0 0.25 0"/>
<feBlend mode="normal" in2="BackgroundImageFix" result="effect1_dropShadow_402_212"/>
<feBlend mode="normal" in="SourceGraphic" in2="effect1_dropShadow_402_212" result="shape"/>
</filter>
<filter id="filter1_d_402_212" x="0.139954" y="42.4851" width="45.7213" height="20.135" filterUnits="userSpaceOnUse" color-interpolation-filters="sRGB">
<feFlood flood-opacity="0" result="BackgroundImageFix"/>
<feColorMatrix in="SourceAlpha" type="matrix" values="0 0 0 0 0 0 0 0 0 0 0 0 0 0 0 0 0 0 127 0" result="hardAlpha"/>
<feOffset dy="4"/>
<feGaussianBlur stdDeviation="2"/>
<feComposite in2="hardAlpha" operator="out"/>
<feColorMatrix type="matrix" values="0 0 0 0 0 0 0 0 0 0 0 0 0 0 0 0 0 0 0.25 0"/>
<feBlend mode="normal" in2="BackgroundImageFix" result="effect1_dropShadow_402_212"/>
<feBlend mode="normal" in="SourceGraphic" in2="effect1_dropShadow_402_212" result="shape"/>
</filter>
</defs>
</svg>
