<svg width="27" height="24" viewBox="0 0 27 24" fill="none" xmlns="http://www.w3.org/2000/svg">
<g filter="url(#filter0_d_277_379)">
<path d="M18.0531 10.3439C18.9683 9.2673 19.5089 7.9382 19.5089 6.5C19.5089 2.91015 16.1407 0 11.9858 0C7.83092 0 4.46271 2.91015 4.46271 6.5C4.46271 10.0899 7.83092 13 11.9858 13C13.6508 13 15.1895 12.5327 16.4357 11.7415L16.4347 11.7422C16.4689 11.7822 16.5069 11.8204 16.5488 11.8566L21.0053 15.7071C21.4573 16.0976 22.1901 16.0976 22.6421 15.7071C23.0941 15.3166 23.0941 14.6834 22.6421 14.2929L18.1856 10.4424C18.1437 10.4062 18.0994 10.3734 18.0531 10.3439ZM18.3515 6.5C18.3515 9.53757 15.5015 12 11.9858 12C8.47013 12 5.62011 9.53757 5.62011 6.5C5.62011 3.46243 8.47013 1 11.9858 1C15.5015 1 18.3515 3.46243 18.3515 6.5Z" fill="black"/>
</g>
<defs>
<filter id="filter0_d_277_379" x="0.462708" y="0" width="26.5184" height="24" filterUnits="userSpaceOnUse" color-interpolation-filters="sRGB">
<feFlood flood-opacity="0" result="BackgroundImageFix"/>
<feColorMatrix in="SourceAlpha" type="matrix" values="0 0 0 0 0 0 0 0 0 0 0 0 0 0 0 0 0 0 127 0" result="hardAlpha"/>
<feOffset dy="4"/>
<feGaussianBlur stdDeviation="2"/>
<feComposite in2="hardAlpha" operator="out"/>
<feColorMatrix type="matrix" values="0 0 0 0 0 0 0 0 0 0 0 0 0 0 0 0 0 0 0.25 0"/>
<feBlend mode="normal" in2="BackgroundImageFix" result="effect1_dropShadow_277_379"/>
<feBlend mode="normal" in="SourceGraphic" in2="effect1_dropShadow_277_379" result="shape"/>
</filter>
</defs>
</svg>
